<?xml version="1.0" encoding="UTF-8"?>
<svg id="hills2" xmlns="http://www.w3.org/2000/svg" version="1.1" viewBox="0 0 1920 1080">
  <!-- Generator: Adobe Illustrator 29.7.1, SVG Export Plug-In . SVG Version: 2.1.1 Build 8)  -->
  <defs>
    <style>
      .st0 {
        fill: none;
      }

      .st1 {
        fill: #1d1d3a;
        fill-opacity: 0;
      }
    </style>
  </defs>
  <path id="h2-6" class="st0" d="M524.28,418.82c6.36,0,80.19-14.81,103.12-36.53s27.88-36.49,51.6-22.65,33.69,18.54,46.63,18.82c8.01.2,15.99,1,23.88,2.4v66.14l-117.51,11.92-107.72-40.1Z"/>
  <path id="h2-5" class="st0" d="M294.06,498.2l49.09-66.93s-64-6.48-93.59-31.29-63.47-49.78-87.15-41.46-81.7,4.44-98.73,15S.1,387.08.1,387.08l.37,60.18,209.28,50.94h84.31Z"/>
  <path id="h2-4" class="st0" d="M264.94,449.2s61-16.39,94.07-37.28,61.37-37.2,73.53-36.12,69.9-40,80.18-42.62,13.55-.37,29,1.85,22-5.27,34.52,6.39,43.29,34.86,75.51,48.52c25.88,11,91.48,28.88,91.48,28.88l-31.58,67.73-326.93,9.27-119.78-46.62Z"/>
  <path id="h2-3" class="st0" d="M.47,469.58v-49.58s113.73-2.74,171.72-26.68c57.99-23.94,101.69-72.29,134.53-52s31.37-18.48,61.9,13.28,78.06,38.88,109.38,52.26,113.08,26.06,113.08,26.06l-59.28,53.4-259.25-1.32L.47,469.58Z"/>
  <path id="h2-2" class="st0" d="M749.55,500v-101.73l-38.48-6.67s-29.86,12.13-63,11.53-39.61-7.26-70.33-13.41-72.58,21.4-105.61,21.4-75.5-17.78-110.64-17.78c-24.85,0-90.08,20.12-110.82,18.48s-51.11-20.42-82-6.26S.47,409.26.47,409.26v90.74h749.08Z"/>
  <g id="h2-1">
    <path id="h2-11" data-name="h2-1" class="st1" d="M283.6,454.89c.2-.21-.73-.99-.5-2.05.09-.41.35-.83.5-.8.18.04-2.98-1.18-2.98-.73-21.77-7.82-29.74-9.22-29.62-9.46,0-.03.7.29,2.26,1.07,2.07.75-.14-1.38-1.17-2.75-1-1.56,8.79,5.06,2.89-1.45-1.3-1.65,1.8-.41,3.17-.75.57.27-5.69-2.87-7.16-2.07-1.93.07-.07-1.78-.07-1.78-1.36-.17-2,2-4.89-.07-1.68-.74-5.92.58-6.2-2.54,1.6-1-.85-2.32,3.3-.46s1.23-.57,4.69,0c1.38.2,1-1.24.28-2.27-1.68-1.76,10.34,4.45,6.13.07-.49-1.1-18.38-3.65-17.14-4.75-3.87-1.14-9.89-3.62-13.36-9.28-3.29-5.37-2.37-10.45-1.33-20.75,2.82-27.88.28-32.39,4.83-35.81,8.93-6.72,25.45,5.59,27.28,2.56,2.02-3.35-14.65-25.25-35.24-23.68-17.42,1.33-30.02,18.87-28.14,21.88,1.65,2.63,14.06-6.3,20.94-1.14,6.32,4.75,3.6,18.15,1.93,26.35-1.41,6.93-5.58,27.49-21.64,37.21-5.77,3.49-13.85,6.06-13.73,6.37.07.17,2.47-.46,2.45-1.03-.05-1.12-9.5-1.29-9.52-2.41,0-.2.28-.35.48-.45,3.86-2,8.5-3.15,8.48-4.01,0-.17-.19-.29-.36-.39-2.27-1.44-7.52,2.97-9.32,2-.16-.08-.19-.16-.21-.2-.29-.84,4.1-2.69,3.81-3.6-.02-.07-.07-.12-.39-.3-.31-.18-1.49-.86-2.14-.99-1.3-.27-2.69,1.17-3.37,1.79-3.56,3.26-9.37,4.24-10.42,2.94-.73-.91.82-2.96.25-3.36-.77-.54-3.5,3.25-7.02,3.16-.28,0-.75-.04-1.27-.14-1.2-.22-1.38-.52-3.73-1.53-.71-.31-.99-.41-1.03-.65-.08-.57,1.35-1.04,1.32-1.95,0-.02-.04-.19-.12-.52-.26-1.13-.28-1.1-.27-1.16.14-.61,1.16-.48,1.89-1.5,0,0,.12-.17.25-.45,2.9-6.36-23.52-31.09-23.52-31.09-30.61-28.65-30.1-112.58,2.44-134.22,23.58-15.68,57.75,5.5,62.67-4.67,4.06-8.4-15.98-29.59-39.11-40.67-45.3-21.69-100.23-3.49-100.67,7.11-.32,7.84,29.32,8.3,37.33,29.33,4.41,11.57-.37,22.42-3.56,31.78-21.33,62.64,6.5,123.17-9.78,128.67-2.99,1.01-5.85-.39-8.67-1.78-27.28-13.41-28.04-87.85-3.78-100.22,11.12-5.67,24.26,3.35,26.67-1.11,2.77-5.14-11.73-22.72-30.89-28.22-17.86-5.13-33.89,1.93-46.67,7.56-4.71,2.07-16.74,7.37-16,11.33,1.07,5.75,27.1-1.67,34.67,8.89,10.12,14.12-25.65,42.42-31.32,91.11-2.17,18.63.75,34.42,3.52,44.76,2.9,51.75,1.56,65.59-.79,65.91-.16.02.18-.03,0,0-4.74.81-2.73,49.14-2.73,52.15h752.6s1.07-17.38,2.31-50.36c0-.09.11.01.2,0,2.98-.39-2.57-30.49-.12-63.45,0,0,3.66-49.18.12-50.95-15.56,1.93-33.18,2.57-36.3-4.62-1.28-2.95.33-6.18,1-7.67,11.96-26.4-27.14-68.84-12-82,8.01-6.96,21.03-.31,22.33-4.33,1.52-4.7-14.74-18.32-33-18.67-22.04-.42-40.73,18.6-38.67,23.33,1.63,3.74,15.18-3.72,22.33,3,8.32,7.82,9.21,22.84,13,50,2.33,16.69,8.78,21.73,5,30.67-4.11,9.72-17.16,16.58-26.67,15.67-27.44-2.64-46.39-57.09-51.7-92.27-2.94-19.49-8.5-54.32,4.74-89.42,6.67-17.67,22.29-2.31,50.63-23.98,6.66-5.09-45.12-19.15-83.33-3-27.35,11.56-49.16,35.92-45,43.67,3.5,6.52,22.33,2.67,38.67-6.33,24.73-13.63,20.91,57.01,19.33,76.33-1.33,16.33,4,48.33,12.33,89.67,2,14.33-15.28,37.52-23.44,31.33-20.22-15.33-44.8-38.45-46.89-66.67-1.33-18,20-10,36.89-20.78,17.02-10.86-31.55-13.61-62.89-4.11-19.81,6-38.77,19.2-36.89,25.33,2,6.54,33.83-12.78,46.38,8.09,17.36,28.88,36.85,70.89,27.85,78.14-2.53,2.24-5.42,2.65-7.56,2.98-16.9,2.61-35.41,12.51-36.72,7.4,3.4-3.55-46.36-49.36-32.65-48.53,22.73,1.36,52.27-34.02-16.32-12.51-66.06,20.71-20.34,23.83-13.71,19.15,16.32-11.54,45.12,44.28,48.93,46.75-4.07-.96-4.65-.07-3.45.83,4.37,3.31-26.7,8.61-42.8,12.9,0,0-11.91,3.18-24.78,5.3-4.62.76-9.56,1.38-9.56,1.34,0,0,.01-.01.03-.04.02-.02.05-.06.06-.1,0-.03,0-.05,0-.07,0-.02,0-.04,0-.04-.01-.08-3.08.6-3.35.04-.08-.17.11-.43.16-.49,1.11-1.48,3.48-9.63.81-13.07-.47-.61-1.64-1.76-1.57-3.39,0-.23.04-.42.06-.51.55-2.41,8.14-2.28,8.44-3.77.33-1.64-7.91-6.88-16.88-5.49-7.05,1.09-12.81,6-12.21,7.75.69,2.01,9.44-1,11.61,2.71,1.66,2.83-.83,9-1.06,9.5-.01.02-.08.17-.15.3-.59,1.22-.73,1.48-.76,1.47,0,0,0,0,.01-.13.02-.14.02-.24.02-.24,0,0-.02.2-.02.24-.08.7-1.8,1.24-1.74,1.83.01.12.09.2.18.3.31.33.71.2.93.49,0,0,.11.14.12.41.03.63-16.7,5.11-41.89,4.3-29.95-.96-53.79-8.82-53.73-9.11.02-.08,1.9.14,1.96-.16.05-.28-1.45-1.09-1.6-1.29-.01-.01-.06-.09-.16-.15,0,0-.05-.03-.1-.05-.18-.06-1.05.47-1.23.47-1.22-.02-1.68-24.64-1.68-24.64-1.01-3.38-2.04-9.09.86-14.49.12-.23.31-.57.56-.95,5.05-7.62,20.43-4.49,21.22-7.29.77-2.76-12.25-12.64-27.66-11.65-13.64.88-25.03,10.02-24.06,13.17.99,3.23,14.66-.89,18.28,5.49,1.75,3.07,1.84,9.78,1.42,14.02,0,.04-.02.19-.04.39-.14,1.3-1.96,16.69-8.11,17.89-.7.14-1.9.18-3.6-.76"/>
  </g>
</svg>