<?xml version="1.0" encoding="UTF-8"?>
<svg id="hills1" xmlns="http://www.w3.org/2000/svg" viewBox="0 0 831.79 441.32">
  <defs>
    <style>
      .cls-1 {
        font-family: Mojita, Mojita;
        font-size: 60px;
      }

      .cls-2 {
        fill: rgba(22, 18, 43, 0);
      }

      .cls-2, .cls-3, .cls-4, .cls-5 {
        stroke: #000;
        stroke-miterlimit: 10;
        stroke-width: .25px;
      }

      .cls-3 {
        fill: #fff;
        isolation: isolate;
        opacity: .5;
      }

      .cls-4 {
        fill: rgba(255, 255, 255, 0);
      }

      .cls-5 {
        fill: none;
      }

      .cls-6 {
        letter-spacing: -.05em;
      }

      .cls-7 {
        letter-spacing: 0em;
      }
    </style>
  </defs>
  <path id="cloudStart-L" class="cls-4" d="M78.64,26.79c-.1,0-.3.2-.4.3-1.9-8.3-13.5-3.3-13.9,2.6.2,1.8,1.2,6.2-2.3,6.3-5.6-2.6-5.5.3-9.8,2.7-2.6-2.5-10-.6-9.9,3.4,49.8-1.3,91.9-1.8,126.3-1.6,1.4-6.6-5.5-5.8-9.2-4.5,1.5-3.2-4.1-2.8-5.5-2,.1-2.1.2-3.4-2.1-2.6,2.8-9.8-13.1-10.3-14.1-3-.6,3.2-1.2,4.8-1.8,4.8-4.5-1.5-3.8-.3-7.8.9-2.3-1.1-2.3-5.2-6.4-3.1.2.3-.3.4-.4.6,3.1-5.3,4.2-10.3-2.3-10.4-.2-23.2-37.4-15.3-30.4,6-1.9-3.8-6.7-2.5-9.8-.3M151.54,31.59h0c0,.1,0,0,0,0h0M207.14,35.59c2.9-9.9-15.9-8.5-12.4-.4-5.9-.7-3.4-1.7-7.4,2.1-1,.3-3-2.3-3.6-2.4-2.7.4-6.2,2.6-5.7,5.7,4.2.1,13.6,0,28.4-.3.4-1.1.6-2.7.6-4.7M219.44,33.99c-3,0-5.5,2.9-5.3,6.1,4.5-.1,9.3-.3,14.5-.4,2.5-5.4-4.8-4-6.3-3.6-1.3.3-2-2.1-3-2.1h.1Z"/>
  <path id="cloudStart-R" class="cls-4" d="M717.84,36.89c0,1,1.2,1.6,2.2,1.2,17.9,1.7,6.4-8.6-2.2-1.2M684.74,16.09c1.3-14.4-17.6-14.4-23.3-4-3.9-3.6-10.3-3-15.1.2-3.2-19-36.9-14.1-38.2,3.4-7-3.1-14.1,3.4-16.9,9.7-4.5-8.1-12.7,1.8-11.6,7.7-2.5-.5-11.8,1.6-11,6.1,42.2-1.2,102.5.2,144.8-.8,3.3-4.7-5.7-6.8-7.6-5.1-.2-4.8-4.9-8.8-9.5-5.3-.6-6.1-5.4-9.8-11.8-8.9.1-.8.2-1.8.2-2.9M737.74,37.89c2-2.8-6-3.4-4.2-.1.5.8,3.6.8,4.2.1Z"/>
  <path id="cloudsBig-L" class="cls-3" d="M294.44,227.09c-94.4,24-191.8,46.4-288.9,41.9V106.89c13.2,4.6,24.7,14.5,30.1,27.5,10.1-3.4,21,1.7,28.5,9.2,19.1-13,49.9-6.4,61.2,14.2,5.8-1.7,14.9,3.6,16.4,9.5,22-21,63.1-11.5,73,17.7,10.1-4.8,22.4,4.3,20.8,15.3,21.5-7.9,51.8,3.9,58.8,26.9l.1-.1Z"/>
  <path id="cloudsBig-R" class="cls-3" d="M804.84,34.39l26.8,179.4c-163.5,24.8-334,76.2-497.6,41.2,8.7-15.6,30.8-21.9,46.5-13.3,1.3-7.7,12.5-13,19.2-8.8,2.5-36.5,49.1-57.4,76.5-31.8,6.3-8.4,19.2-12.4,29.1-8.9,5.1-12.3,18.3-19.2,29.7-12.4.7-39.5,48.9-63.5,80.9-40.4,5.1-4.6,15.4-4.4,21.2-.8,9.8-19.9,38.8-31.3,59.6-23.7,2.5-30.2,39.5-54,67.9-40.6,3.5-18.2,22.4-34.5,40.1-39.7l.1-.2Z"/>
  <path id="h1-9" class="cls-5" d="M703.9,342.89H82.54v-73.53c10.19-.52,20.5-.36,30.05-3.65,8.11-2.8,15.84-8.49,23.78-11.33s18.18,1.84,25.36-4.85c10.81-10.08,17.81-25.85,32.52-22.84,6.21,1.27,12.09,3.66,18.43.84,6-2.65,9.73-9.46,14.69-13.54,2.87-2.35,6.42-3.2,9.35-5.49,1.65-1.28,5.45-6.37,7-6.92,7.94-2.93,10.34,2.69,18.56-3.47,6.45-4.84,8.52-8.21,15.45-5,5,2.35,11.89,10.09,16,15.37,8.71,11.41,15.81,23.18,26.52,32.94,11.62,10.63,21.59,9.37,34.67,5.83,16.12-4.37,18.32,9.06,32.24,15.28,7.45,3.32,13.23-1.7,19.6-2.08,3.64-.22,5.85,2.12,9.37,1.82,3.12-.27,4.08-4.44,8.33-3,7.32,12.31,15.75,20,28.21,20.59,14.32.7,27.12.76,39.73-4.94,5.95-2.62,11.71-5.64,17.25-9.03,8.71-5.36,11.22-2.82,19.35,1.5,11.66,6.21,25.31,1.08,36.56,9.18,5.53,4,8.36,12.23,14.64,14.79,4.86,2,15.59.38,20.4-1.18,13.47-4.38,21.52-16.59,36.56-17.33,13.57-.67,25.19-4.17,39.11-2.31,10.91,1.46,18.72-.1,27.63-2.61v74.96Z"/>
  <path id="h1-8" class="cls-5" d="M757.54,433.89V146.38c-4.75,1.15-8.88,4.07-11.54,8.17-2.21,3.35-4.39,7.9-7.92,7.69-1.44-.08-2.78-1-4.23-1.08-5.12-.2-7.87,10.11-12.84,8.66.35-1.45-.53-2.91-1.98-3.26-.19-.05-.39-.07-.59-.08-1.49.1-2.72,1.38-3.77,2.67-3.35,4.19-5.95,8.93-7.7,14-1.76-6-8.53-7.93-13.43-5.51s-8.31,7.76-11.48,12.87l-17.31,27.92c-4.54,7.33-11.47,15.57-18.52,12.15-3.38-1.64-5.76-5.76-9.32-6.73s-7.55,1.64-11.18.48c-5.45-1.76-8.37-11.36-14-10.4-3.13.54-5.93,4.55-8.87,3.14-1.52-.73-2.44-2.76-4-3.36s-3.32.52-5,1.13c-7.4,2.73-14.16-5.41-21.27-9.08-12.35-6.38-26.85,1.31-36.59,12.45-3.1,3.54-6,7.5-9.78,9.89-3.22,2-6.88,2.8-10.48,3.54l-28.2,5.83c-15,3.07-30.14,6.2-44.07,13.54-6.63,3.48-13,7.91-19.94,10.16-10.83,3.5-22.26,1.5-33.47,1.18-9.18-.27-102.2,122.09-140,171.54h507.48Z"/>
  <path id="h1-7" class="cls-5" d="M757.33,433.89l.21-260.88c-.58-.62-1.15-1.25-1.74-1.87-5.67-5.95-12.57-12.05-20.78-11.77s-15.44,7.12-23.74,6.87c-7.55-.23-14.09-6.33-21.65-6.11-5.79.17-10.74,4-15.29,7.6-27.02,21.36-337.91,189.33-482.28,266.16h565.27Z"/>
  <path id="h1-6" class="cls-5" d="M32.24,216.69c10.9,1,20,2.4,27.6,4.1-.1-.2-.3-.3-.3-.3-10.4-8.6-1.3-5.3-1.3-5.3-7.5-7-.3-3.9-.3-3.9-5.2-8.7-.3-5.8-.3-5.8,1.1.1-.1-1.8-.1-1.8-.6-2,.3-2.9.3-2.9-1.9,1.2-1.1-.3-1.1-.3.5-.9,1.2-1.7,1.2-1.7-2.8-4.3-.2-2.4-.2-2.4,2.7,1.4,1.3-.2,1.3-.2-2.5-2.9.3-1.3.3-1.3,1.2.4,0-1.3,0-1.3-2.1-3.1-.5-2.9-.5-2.9-1.4-3.3-.3-2.6-.3-2.6.9.6,1.2,2,1.2,2,.3-.9-.3-3-.3-3-1.1-2.2.5-1.4.5-1.4l-.3-5.3c0-5,.4-1.1.4-1.1l.6,6.1c.7,1.2.4,2.2.4,2.2,1.5.2,1.1,2.6,1.1,2.6,1.4.7.5,2.4.5,2.4-.4.6.1,1.1.1,1.1.4.6.5,2.1.5,2.1,1.3-1.9.6,1,.6,1-.8,2.8,0,1.5,0,1.5,1.5-2.5.8,1.3.8,1.3-.5,2.1.5.9.5.9,1.7-1.9.7,2.2.7,2.2,5.2-2.5,1.7,3,1.7,3-2.8,4.1-.9,2.9-.9,2.9,5.1-3.4,2.1,1.4,2.1,1.4-2.8,3.8-.3,2-.3,2,6.2-2.4,1.3,3.1,1.3,3.1-4,3.7-1.7,2.6-1.7,2.6,4.8-2.6-.9,2.2-.9,2.2-1.4,1.1-1.2,2.1-1.2,2.1l2.3-1.9c1.7-1.2.4.7-.8,2.3,2.3.6,4.4,1.3,6.4,1.9,0-.2-.2-.3-.2-.3-3.7-5.3-1-2.5-1-2.5,2.3,1.8,0-1.7,0-1.7-2.7-4.5-.6-2-.6-2,2.6,2.4,1.2-.1,1.2-.1-2.3-3.7-.2-3,0-3-2.2-3-.3-2.5-.3-2.5-2.3-1.9.5-1.6.5-1.6-2.2-.5-1.1-.8-1.1-.8-2.5-1.8-.3-1-.3-1-.6-1,.1-.7.1-.7,3.1,2.1,1.2,0,1.2,0-2.2-2.1-.3-1.6-.3-1.6-2.4-2.5-.5-1.5-.5-1.5,3.4,2,1.9.3,1.9.3-4-2.8-.8-1.6-.8-1.6,1.6.6.5-.7.5-.7-2.1-2.4-.4-1.5-.1-1.4-2.1-2.3-.3-1.2-.3-1.2-2-2.8.5-1.2.5-1.2-2.3-3.4-.1-1.6-.1-1.6-.4-2.7.4-3.3.4-3.3,1,.7.9,3.1.9,3.1,2.1-2.2.7.8.5,1.1,2.7-2.5.2,2.5.2,2.5v.9c4.1-3.6,1,1.1,1,1.1,4-2.3.7,1.5.7,1.5-1.5,1.5,0,1.1,0,1.1,2.2-.4,1.1,1.2,1.1,1.2.6.4-.3,1.9-.4,2.1,3-3.6.7,1.2.5,1.6,2.7-3.8.3,1.4.3,1.4,2.6-3.2.3,1.3.3,1.3,2-1.9.5,2.2.5,2.2,1.7-1.7.7.4.7.4-1.9,4-.5,2.2-.5,2.2,3.9-3.8,1,.7,1,.7-2.6,4.2-.2,1.8-.2,1.8,3.2-2.5,1.2.4,1.2.4-2.1,3.4-.2,1.6-.2,1.6,4.4-3.4,0,2.8,0,2.8,5.8-3.5,1.5.6,0,1.9,1.6.7,3.1,1.4,4.4,2.1,3.9,2,7.3,4.7,10.4,7.7,2.4,2.3,5.8,4.6,9.6,6.6-1.9-4.6-.4-2.7-.4-2.7,3.2,3.9,2,.3,2,.3-2.7-5.5,0-3,0-3,2.6,1.8,1-3.2,1-3.2-1.8-5.7,1.4-2.1,1.4-2.1-2.4-6.6,0-2.5,0-2.5-.3-5.6.3-6.6.3-6.6,1.3-.7,1.7,5.5,1.7,5.5,2.7-2.9.6,3.2.6,3.2,3.4-3.6,1.5.2,1.4.4,2.4-1.5,1.5.9,1.1,1.7,1.3.1,3.1.9,3.1.9-7.2-12-.5-8.1-.5-8.1,1.6.1-.1-2.4-.1-2.4-.7-2.6.3-3.9.4-4.1-2.6,1.6-1.6-.4-1.6-.4.7-1.2,1.6-2.3,1.6-2.3-3.9-5.9-.3-3.3-.3-3.3,3.7,2,1.8-.3,1.8-.3-3.5-4.1.4-1.8.4-1.8,1.6.5,0-1.9,0-1.9-2.9-4.3-.7-4.1-.7-4.1-2-4.6-.4-3.6-.4-3.6,1.3.8,1.6,2.8,1.6,2.8.4-1.2-.4-4.1-.4-4.1-1.6-3,.7-1.9.7-1.9l-.4-7.3c0-6.9.5-1.6.5-1.6l.8,8.4c1,1.7.6,3.1.6,3.1,2,.4,1.5,3.6,1.5,3.6,1.9,1,.6,3.4.6,3.4-.6.9.2,1.5.2,1.5.6.8.7,2.9.7,2.9,1.8-2.7.8,1.4.8,1.4-1.1,3.9,0,2.1,0,2.1,2.1-3.5,1.1,1.8,1.1,1.8-.7,2.9.7,1.3.7,1.3,2.3-2.7,1,3.1,1,3.1,7.2-3.4,2.4,4.2,2.4,4.2-3.9,5.6-1.3,4.1-1.3,4.1,7.1-4.7,2.9,1.9,2.9,1.9-3.9,5.2-.4,2.8-.4,2.8,8.5-3.3,1.8,4.4,1.8,4.4-5.6,5.2-2.4,3.6-2.4,3.6,6.6-3.7-1.2,3-1.2,3-1.9,1.5-1.7,3-1.7,3l3.2-2.6c2.8-2,0,1.8-1.9,4.2.8.1,1.7.2,2.5.3-.3-1.8,2.1-.3,2.3-.2-2.5-5.8-.8-3.7-.8-3.7,3.2,3.9,2,.3,2,.3-2.7-5.5,0-2.9,0-2.9,2.6,1.8,1-3.2,1-3.2-1.8-5.7,1.4-2,1.4-2-2.4-6.6,0-2.5,0-2.5-.3-5.6.3-6.6.3-6.6,1.3-.7,1.7,5.4,1.7,5.4,2.7-2.9.6,3.2.6,3.2,3.4-3.6,1.5.2,1.4.4,2.9-1.8.9,2,.9,2-1.8,4.3-.2,2.5-.2,2.5,3.1-2.5,1.1.5,1.1.5-1.7,2.9,0,1.5,0,1.5,2.4-1.7.8,1,.8,1-1.9,3.6.2,1.8.2,1.8,3.8-2.2,0,4.2,0,4.2,5.3-2.6,3.8-.8,2.1.9,8.7,2.7,15.3,7,19.1,9.9,3.6,2.7,7.4,5.1,11.4,7,.2-.2.5-.3,1-.5,0,0-1-1.4-.3-2.9,0,0-3.6-3.2-.2-1.7-.1-.2-1.6-2.7.3-1.9,0,0-1.4-2.1.9-1.4-.2-.2-2.2-3,.1-1.9-.1-.1-1.5-1.9-.2-1.7,0,0,.6-.3.1-1.2,0,0-.7-.9.2-2.3,0,0,1.1.6.9,2.2,0,0,1.2-.7.2,1.5,0,0,1.1-.6.4,1.6.2-.2,1.5-1.8.9,1.1,0,0,1.4-1.6.3,2,0,0,2.8-1.5,1.5,1.1,0,0,2-.3,1.8-1.9,0,0-4.1-4.4-1.2-2.7,0,0-2.4-3.9.2-1.9,0,0,1.9,1.5-.6-2.1,0,0-3-3.8.5-1.7,0,0,1.8,1.3.5-1.9,0,0-2.5-5.1.1-2.1,0,0-.1-7.4.7-.8,0,0,2.1-3.2.8,3.2,0,0-.7,5.5.6,2.6,0,0,1.6-4,.4,2.8,0,0-.6,2.9.8.4,0,0,1.6-2.6,0,3.2,0,0-.9,2.3.2,1.3,0,0,1.3-2.3.3,1.8.1-.1,1.3-1.1.7,1.7,0,0,1.4-1.8.5,1.5,0,0,0,1.7,1.2-.7,0,0-1.8-3.1.2-1.7-.1-.2-1.4-2.1,0-1.3,0,0,1,.4-.3-1,0,0-1.6-1.8.4-.9,0,0-.4-1.5.2-2.8,0,0,.7,1,.7,2.6,0,0,2-2.5.4,1.8,0,0,1.9-1.5.8,1.5,0,0,1.7-1.5.6,1.5,0,0-1.1,2.8.6,2.6,0,0,1.4-.1.7-1.7,0,0-1-2.8.5-1.2,0,0,1.6,1.7-.1-1.3,0,0-1.4-2.2.3-.7,0,0,1.8,1.3.1-1.1,0,0-1.6-2.4.5-.9,0,0,1.4.8-.3-1.4,0,0-2-3.3.6-1.5,0-.2-.6-1.5.6-1.4,0,0,1.1,1,.1-1.4,0,0-2.7-3.6-.6-2.1,0,0-.4-1.4.5-.8-.2-.2-1.2-1.4-.4-2.4,0,0,.7-1.4.4-3,0,0-.3-3.9.7.7,0,0,1.2.2.9,3.2,0,0,1.3-.8.3,1.7,0,0,1.8-1.4.5,2.1,0,0-.7,1.4.3,2.3,0,0,2-1.1.9,1.3,0,0,1.9-.4-.6,1.9,0,0-1.6,1.7,1.5.3,0,0,1.5-1-.4,1.8.2,0,2-.9.3,2.5.2,0,1.8-.9.9,1.7,0,0-1,1.3.6,1.8,0,0,.6,3.2,1-.3,0,0-1.6-4.5,0-2.5-.2-.3-2.2-4.5.4-1.6,0,0-1.5-3.7.7-1.9,0,0,1.2.9-.2-2.5,0,0-1.7-3.5,0-2.5,0,0,0-3.2.2-3.8,0,0,1,2,.9,3.9,0,0,1.3-2.5.8,1.5,0,0-.6,3.5.4,3.5,0,0,1.9-2.8.6,1.5,0,0,1.6-2,1,.6,0,0,0,1.6,1-.3,0,0-1.7-3.5-.5-2-.1-.3-1.6-3.6.2-1-.1-.3-1.7-4.4.3-1.7,0,0-.2-9.4,1-.5,0,0,1.5-2.8.4,1.9.1-.2,1.2-1.6.4,1.9.1-.1,1-1.1.2,1.9,0,0-.4,1.2.7,1.4,0,0,1.4,0,.6-2.3,0,0-1.5-3.7.5-1.5-.1-.4-2-5.6.1-3,0,0-1.2-3.8.1-2.4,0,0-.2-4.7.5-5.9,0,0,.7,2.6,1,6.7,0,0,1.6-3.2.7,2.6,0,0-.7,2.8,1.6-.4,0,0,1.2-2.8.3,2.7,0,0,2.4-2.8.5,2.7,0,0-.7,2.1,1.3-.2,0,0,1.8-2.9.7,1.7.2,0,2.2-.9.8,2.3,0,0,1.8-.5,0,3.1,0,0,3-2,1.2,1.3.2,0,2.4-1.2,1.1,3.5.2-.2,2.7-3.3.9,1.7,7.9,2.3,12.4,6.6,14.4,9.1,2.1,2.5,4.4,4.8,7,6.6,8.4,5.7,18,7.6,26,8.5,10.8,1.2,21.4,3.9,31.3,8.3,8,3.5,14.4,7.1,16.9,8.9,1,.7,2,1.4,3,1.9,12.6,6.9,35.5,8.2,45.2,8.5,5,.1,9.9.5,14.8,1.3,25.5,4,50.1,14.9,63.1,21.4L18.84,399.49.14,210.79c12.8,4.7,32.1,5.9,32.1,5.9ZM117.64,240.19c-.1.4-.4.9-.4.9h0c1,.3,1.9.6,1.9.6-.6-.5-1-1-1.5-1.4v-.1ZM121.94,250.79c-.2-1-1-1.9-1-1.9-.4-.4-.9-.7-1.3-1.1-.6.6-1.3,1.2-1.7,1.5,1.4.5,2.7,1,4,1.4v.1ZM118.24,246.69c-.1-.1-.3-.2-.4-.3-.2.4-.4.6-.4.7.3-.1.5-.2.8-.4h0ZM116.34,239.99c.3-.2.5-.3.7-.4-.3-.3-.6-.6-.8-.9-1.5,2.7.1,1.3.1,1.3ZM115.14,237.99s.2-.1.3-.2c-.3-.3-.5-.6-.6-.9-.8,2.4.4,1.1.4,1.1h-.1Z"/>
  <path id="h1-5" class="cls-5" d="M307.86,359.52c-7.78-5.38-17.22-7.93-25.57-12.43-14.59-7.87-25.69-21.55-39.79-29.71l-.42-3.55c-.55.82-.92,1.74-1.09,2.71-2.48-1.36-5.07-2.5-7.74-3.43-.07-.4-.17-.8-.31-1.19-.62-1.64-2.43-2.82-3.72-1.84-.56-5.51-1.12-11.01-1.69-16.51-1.33,4.04-2.24,8.2-2.73,12.43l-1.17-3.48c-.54,2.11-.73,4.29-.56,6.46.05.58.12,1.19.13,1.79-1.51-.21-3-.39-4.55-.53-.28-2-.55-4-.82-6-.01-.59-.22-1.17-.59-1.63-.88-.85-2.11.31-2.8,1.37-.07-4.11-.56-8.19-1.47-12.2-1.33,5.33-2.67,10.69-4,16.06-1.32-3.35-2.32-6.81-3-10.35l-1.34.65c-.12-4.22-.75-8.41-1.85-12.48-.95,2.12-1.77,4.3-2.46,6.52l-.24-22.71c-1.52.77-1.93,3-2.12,5l-1.77,17.15-.78-9.93-1.2,13.51c-.13,1.39-.82,3.26-2,2.83-.2-3.29-.41-6.58-.61-9.86-.86,4.05-1.15,8.21-.86,12.34.27,1.88.24,3.79-.07,5.66-.09.38-.23.76-.41,1.11-.92-.17-1.85-.33-2.77-.53.37-4.89.17-9.81-.61-14.65-.35,4.76-.7,9.52-1.06,14.28l-1.91-.44c-.4-1.36-.99-2.66-1.77-3.85-.07,1.13-.17,2.25-.28,3.38-2.83-.7-5.64-1.49-8.44-2.33-.45-2.55-.68-5.14-.7-7.73,0-2.21.08-4.65-1.13-6.35-.77,3.83-1.55,7.67-2.32,11.5l-2.94-5.22c-.33,1.05-.81,2.04-1.43,2.94-1.59-6.37-2.28-12.92-2.06-19.48.1-.83,0-1.68-.28-2.47-.34-.74-1.22-1.21-1.81-.72-.33.38-.54.85-.58,1.35-.62,3.45-.58,7.51-2.89,9.76-.56-2.56-1.26-5.09-2.09-7.57-2.17.41-.33,6-2.51,6.33-.42,0-.84-.1-1.22-.29-1.88-.61-4.05.95-4.43,3.18-.36-1.86-.85-3.69-1.49-5.48-1,1-1.37,2.63-1.93,4.05s-1.61,2.84-2.94,2.73c-1.18-.09-2-1.43-2.29-2.79-.14-1.38-.11-2.78.11-4.15.26-3.28-.15-6.57-1.22-9.68-.88,4.08-1.76,8.16-2.65,12.23-.09.59-.38,1.13-.84,1.52l-1-.49c-.08-.17-.14-.34-.19-.52-.47-1.59-.93-3.18-1.39-4.77-1.47.37-2.68,1.41-3.28,2.8-1.43-.74-2.86-1.49-4.28-2.25-.4-1.45-.1-3.37-.22-5-.25-1.88-.87-3.68-1.82-5.32-.05,2.88-.53,5.74-1.43,8.47-11.66-6.3-23.87-12.92-37.13-12.57-28.04.74-47.2,31.67-74.5,36.12v123.62h339.58c-11.53-24.85-34.68-63.51-40.26-67.37Z"/>
  <path id="h1-4" class="cls-5" d="M758.54,433.89v-67.95c-32.59-68.73-53.56-58.59-101.56-92.59-.14-1-.27-2-.41-3-.54.67-.92,1.46-1.09,2.31-2.51-1.16-5.1-2.14-7.75-2.93-.19-1.82-2.36-3.63-4-2.59-.57-4.67-1.13-9.36-1.7-14.08-1.32,3.41-2.24,6.97-2.73,10.6l-1.16-3c-.65,2.29-.79,4.7-.43,7.05-1.51-.19-3-.33-4.56-.46-.51-2.46-.45-9.74-4.2-5.36-.07-3.52-.57-7.01-1.47-10.41-1.33,4.57-2.65,9.14-3.95,13.71-1.31-2.83-2.32-5.79-3-8.83l-1.35.55c-.13-3.62-.74-7.2-1.84-10.65-.94,1.8-1.76,3.65-2.46,5.56l-.25-19.38c-4.16,4.58-2.3,13-3.88,18.87l-.78-8.47c-1.32,4,.82,12.1-3.16,13.94-.21-2.81-.41-5.61-.62-8.41-2,5.29.27,11.14-1.33,16.31-.93-.15-1.85-.29-2.77-.45.37-4.18.17-8.39-.61-12.51-.36,4.06-.71,8.12-1.06,12.18l-1.91-.37c-.41-1.18-1.01-2.29-1.77-3.29-.07,1-.17,1.93-.28,2.89-2.83-.6-5.65-1.27-8.44-2-1.27-3.84.32-8.58-1.83-12l-2.33,9.81-2.94-4.46c-.33.91-.81,1.76-1.43,2.51-3.72-8.44.44-31.59-7.61-9.86-.57-2.19-1.27-4.35-2.1-6.46-2.55,9.5-4.65,1.59-8.16,7.87-.38-1.59-.91-3.15-1.58-4.65-7.5,13.85-6.56-1.79-8.28-8.39-1.32,3.76-1.37,8.43-3.48,11.73l-1-.42c-.6-1.47-1-3-1.58-4.51-1.39.27-2.59,1.15-3.27,2.39l-4.28-1.92c-.37-2.95,0-6.25-2-8.82-.05,2.48-.54,4.92-1.44,7.23-49.29-34.29-86.85,28.8-137.17,20.71l-.24-2.24c-.18.77-.31,1.55-.38,2.34-.65.1-1.29.21-1.93.33.06-1.45-.13-2.9-.56-4.29-.12,1.36-.25,2.72-.37,4.08-2.29-.67-1.19-4.81-1.93-6.76-.15,1.37-.31,2.74-.47,4.1-.93-2.87.08-7.13-2.36-9.15l-.15,9.4c-.44-.93-.94-1.84-1.5-2.7-.66,1.65-1.03,3.4-1.12,5.17l-.82-.27c-.39,1.37-.93,2.69-1.62,3.93l-.28.12c-.77-2.14-1.55-4.28-2.32-6.41-.55,1.63-.85,3.33-.89,5.05-2.66-2.43-2.31,2.71-2.89,4.27l-.58-.55c-2.76,1.71-1.29-3-2.12-4.32l-.71,1.44c-.3-1.79-.86-3.52-1.66-5.14-.34,2.28-.68,4.55-1,6.83-4.21-.74-1.58,5.19-3,7.44l-.64.42c-.34-.64-.79-1.22-1.31-1.72l-.93,1c-1.73-1.42-.31-4.09-1.9-5.61l-.84,4.95c-.87-.25-1.61-.82-2.09-1.59-.19.78-1.24,5.51-2.26,9.24l-8.66,5.85c-.61-2.7-1.04-5.43-1.3-8.18,0,2.68-2,7.92-2.88,11l-3.06,2.07c-1-3.79-2.06-7.14-2.86-7.28-.47,1.36-1.07,8.89-1.53,10.25l-1.7,1.15c-.87-4.35-1.81-9.29-2.35-11.4-.83,2-.58,8.93-.31,13.19l-5.71,3.87c-.65-2.27-1.49-5.21-2.16-5.78-.66,1.48-.89,5.65-1.27,7.23-4.69-4-3.69,5.18-7.43-5.62-.83,2.11-1.53,4.26-2.09,6.46-8.06-21.78-3.89,1.47-7.62,9.86-.62-.75-1.1-1.6-1.43-2.51l-2.98,4.48-2.32-9.81c-2.32,4.54-.48,10.52-2.67,15.35-12.35,7.5-87.61,76.23-133.54,112.42l593.74.04Z"/>
  <path id="bird" class="cls-2" d="M118.15,362.49c-2.5,2.06-13.64-.79-17.86.84,0,0,1-2.72,2-2,0,0-.12-1.36-1.07-1.21-1.34-.5-2.84-.19-3.88.79,0,0-1.65-.58-2.32-.24,0,0-5.63-5.13-9.77-9.69s-11.8-7.09-13.71-13.47c0,0-.81,2.45,2.63,6.06,0,0-5.81-5-6.19-7.68.26,2.92,1.71,5.61,4,7.44-1.93-1.61-3.54-3.69-5.54-5.23v-.06s0,.04,0,.06c0,1.75,2,3.92,3.22,5.57-1.37,0-4.53-5.34-4.08-3.26-.05-.08-.09-.17-.13-.26.6,1.69,1.54,3.25,2.74,4.58-.53-.07-1.69-1.6-1.86-.88-.03-.05-.06-.1-.09-.15-.16,0,1.38,4.78,4.17,6.74-3-.23,4,4.44,5.37,4.34.4,1.4,3.53,3.2,3.86,4.5,2.33,2.76,4.63,7.07,8.58,8,.46,3.8-10.7,6-4.75,7.88.4.94,1.34,1.53,2.36,1.48.2,1,1.59,1.14,2.38.73.3.49,1.61,2,2,1.31.53-2.57,1.4-5.06,2.58-7.4.48-.2.89-.53,1.37-.71-.47,1.42,2.28-.32,3-.38,3.7-.01,7.39-.43,11-1.25.85.59,2.52,1.46,2.37-.34,1.23,1.09,4.19,1,1.77-1,.84.36,1.79.36,2.63,0-.62-.3-1.2-.68-1.71-1.15,1.88.38,6.14-.19,2.11-1.38,1.34-.28,2.42-1.27,2.82-2.58Z"/>
  <path id="h1-3" class="cls-5" d="M607.26,433.89v-91.11c-33.51-10.65-62.1-50.46-98.56-20.79-.8-2.41-1.23-4.93-1.27-7.47-1.85,2.68-1.48,6.14-1.8,9.12-1.25.67-2.51,1.33-3.77,2-.53-1.23-1.6-2.15-2.9-2.48-.47,1.55-.86,3.14-1.39,4.67l-.86.44c-1.9-3.54-1.9-8.23-3.08-12.14-1.52,6.24-.48,23.06-7.3,8.68-.59,1.55-1.05,3.15-1.39,4.78-3.06-6.27-5.18,1.34-7.2-8.14-.74,2.19-1.36,4.42-1.85,6.68-7.05-22.33-3.46,2-6.72,10.2-.56-.79-.98-1.67-1.26-2.6-.87,1.54-1.74,3.08-2.6,4.62-.67-3.39-1.33-6.77-2-10.15-1.91,3.59-.5,8.47-1.62,12.42-2.47.74-5,1.44-7.45,2.06-.1-1-.18-2-.24-3-.69,1.05-1.21,2.2-1.56,3.41l-1.69.38c-.31-4.2-.62-8.4-.94-12.6-.69,4.27-.86,8.61-.53,12.93-.82.17-1.64.31-2.45.47-1.42-5.4.55-11.39-1.18-16.87l-.54,8.7c-3.64-2.23-1.56-10.31-2.79-14.41l-.69,8.75c-1.43-6.09.32-14.52-3.43-19.51l-.21,20c-.62-1.96-1.34-3.88-2.18-5.75-.97,3.59-1.51,7.28-1.62,11l-1.19-.57c-.6,3.12-1.48,6.18-2.64,9.14-1.16-4.73-2.32-9.46-3.49-14.18-.81,3.55-1.25,7.18-1.33,10.82-3.5-4.54-3.22,3.32-3.7,5.54-1.35.13-2.69.28-4,.47.31-2.43.18-4.9-.39-7.28l-1,3.07c-.43-3.74-1.24-7.42-2.42-11-.49,4.86-.99,9.72-1.49,14.57-1.51-1.13-3.44,1-3.55,2.68-2.36.81-4.65,1.82-6.84,3-.16-.86-.5-1.67-1-2.39-.12,1-.24,2.09-.37,3.13-34.54,30.71-61.91,27.5-84.12,78.71h290.6Z"/>
  <path id="h1-2" class="cls-5" d="M466.3,415.89c5.16-5-11.74.58,1.39-8.14,3.06-4.4-10.55.51-5.45-5.72,1.87-2.26-3.86-2.07-1.53-4.31,2.18-3.68-5.58-.57-5.2-4.1.27-2.94,5.63-1.63,5.89-4.53-1.27-1.36-8.66-.73-3.81-4.29.78-.64.63-1.93-.49-1.76-11.28.92,7.41-5.34-5.09-5-.07-7.42-4-8.29-4,.43-2.15-.06-6.11.48-2.34,2.77,6.88,4.11-6.21-.91-.09,6.26-9.68-.45,2.22,4.05-1.66,6.62-6.42-.72,1,3.05-.35,5-2.22-.11-9.69-2.36-6.67,2.14,1.41,1.08,5.44,1.67,4.16,4.19-14,.35-1.69-3.29-6.22-5.16-9.47.18,3.15-4.84,1.85-7.73-9.62.27-4.67-.91-7.3-8.13,2.83-4.76-13.74.93.69-8.63-5.13-2.29-6.41.32-3.61-5.93-11.85.81,5.66-5.38-5.78-5.15.15-7.09-4.22-7.89-4,.44-2.15-.07-6.11.47-2.34,2.76,6.88,4.11-6.2-.91-.09,6.27-9.68-.46,2.23,4-1.66,6.61-6.41-.72,1,3.06-.35,5-14.1-1.58-4.48,1.08-2.41,6.18-.74,2-7.34-1-3.91,2.67,6.41,3.38-1.72,4.42-4.8,2.38,1.12-4.51-12.53.43-.71-6.68-12.2-.93,6.29-5-5.76-4.73-5.54-2.52,8.3-3.7-.69-5.23-5.84-1.94,4.42-3.47.4-4.84-1.22.31-3.76-.16-2.87-1.84,6.91-2.07-.72-1.42-.68-3.93,4.92-1.72-.21-1.63-.26-3.51,4.44,1.35-1.94-14-3.67-3.17-.8,2.29-5.49.91-1.55,3.84,2.52,3.94-2.5,1.25-3.25,3,4.7,6-1.57,2.19-1.09,5.78,3.53,4,1.11,3.15-2.25,3.33,2.61,4,2.08,8.22-3.68,5.72-1.62-1.67,4.32-3.9.4-4.44-10.78.43,6.22-6.38.89-8-7.78,1.15-3.82-.52-6.33-7.88,2.17-3.68-5.59-.58-5.2-4.1.31-2.7,4.62-1.82,5.73-3.86.94-2.65-9.36-.72-3.66-5,2.7-3.64-6.79.55-3.65-3.67,5-2,1.56-3.17-1.92-3.12-.54-.27.63-8.46-3.55-4.92,1.75,8.9-7.66,3.56-2.78,8.13,6.88,4.11-6.21-.92-.09,6.26-9.68-.45,2.22,4-1.66,6.62-6.42-.73,1,3-.35,5-14.11-1.58-4.48,1.08-2.41,6.19-.82,1.56-3.05.34-4.45.57-1.81,1.88,8.35,6.13-.87,5.54,7.65-5.69-10,.57-.46-8.75-5.45-1.75-6.32-1.71-1.64-6.16-2.69-2.14-5.64.68-2.42-5.44-2.48-.13-4.29.5-1.67-2.47.2-2.56-4.21-.12-.81-4.3-4-.95-2.86-.66-1.28-3.78-4.36-.68-3.26-9.29-5.9-.45-1.69.42-.32,2,.9,1.53-.32,1.21-3.28,1.72-.2,2.6-.13,1.72-5.33,1.7-.51,2.92.67,1.25-1.22,1.6-2.13,1.37-3,1,4.64,2.15.3,3.6-7,1.29,3.64,2-.51,3.87-9-.18,4.78,2.82-4.28,3.52,11,6.71-6.38.31,1.4,6.37-.76,2-6.41-1.15-5.09,1.82,2.32.84,4.11,2.25.87,3.47-4.11,1.08-2,1.74-3.25-.62-6.34.25,3.67-3.77.53-4.71-5.43,1-1.73-1.91-3.33-3.35-.39,0-.71-.33-.7-.72,0-.23.11-.44.3-.57.24-2.77-7.7-.85.31-4.69.55-1.57-5.52-.43-2.15-2.93,1.59-2.15-4,.32-2.16-2.16,3-1.18.92-1.87-1.13-1.84-.32-.16.37-5-2.09-2.9,1,5.58-4.69,1.75-1.64,4.79,3.93,2.34-3.67-.41-.05,3.69-5.7-.27,1.3,2.39-1,3.9-3.78-.43.56,1.8-.21,2.95-7.14-1-3.36.55-1.4,3.6-20.82-5.42,15.55-8.49-9.78-14.34-1-4.08,4.92-5,6.1-8.35-2.57-4.75-11.79,3.63-4.62-10.39-4.74-.25-8.2,1-3.19-4.72,1-5.25-8.31.83-1.55-8.2-.43-2.27-3.52,0-4.8-.76-3-2.12,3.41-5,2.35-6.46-8.43-.81-5.66-18.62-11.26-.86-3.23.81-.61,3.74,1.71,2.91-.06,2.62-7.33,2.59-.37,5,1.16,2.72-5.59,1.51-4.85,4.07.49,1.35,2.93.41,3.88,1.5,1.26,2.37-2.34,3.06-4.07,2.61-5.69,1.95,8.86,4.1.58,6.87-12.17,1.9,6.57,4.08-1,7.41-17.71-1,8.72,6.71-6.76,5.84-6.41-2.11-7.5-2-1.94-7.31-3.15-2.61-6.72,1.08-2.86-6.42-2.94-.15-5.08.59-2-2.92.43-3.17-5.08.26-1-5.07-4.84-1.29-3.61-.46-1.52-4.47-2.94-.11-2.83-2.64-4-4.7-3-2.3-1.29,3.54-2.94,4.17-2,.5-.38,2.31,1.06,1.8,0,1.62-4.53,1.6-.23,3.08,0,2.09-6.51,1.85-.6,3.45.78,1.46-1.45,1.89-2.52,1.61-3.52,1.21,5.48,2.54.36,4.25-7.81,1.33,4.22,2.36-.61,4.58-10.59-.21,5.65,3.33-5,4.16,10.45,6.46-.72,1.82-.83,5.58,8.72,4.58-6.19.52-3.48,4.14,7.92,3.4-3.1,4.87-2.53.79-6.34-.08,3.86-3.57.78-4.68-4.16,1-2.76-2.51-3.48-4.83.07-2.93-7.44-.71.56-4.66.63-1.54-5.48-.72-2-3,1.7-2.06-4,.12-2-2.27,3-1,1-1.81-1-1.89-.31-.18.64-5-1.93-3,.74,5.62-4.78,1.51-1.89,4.7,3.79,2.53-3.64-.6-.26,3.68-5.67-.56,1.18,2.45-1.18,3.84-3.75-.62.47,1.83-.36,2.94-10.47-2.77,3.15,4.78-4.25,3.77,4.88,5.83-10.67,1.08-1.94-3.71-2.69-2.14-5.64.67-2.41-5.44-2.49-.13-4.3.5-1.68-2.47.2-2.56-4.21-.12-.8-4.3-4.11-.92-2.8-.73-1.29-3.78-2.48-.09-2.39-2.23-3.41-4-2.53-1.94-1.09,3-2.49,3.53-1.69.43-.32,2,.9,1.53-4.38,3.14,2.56,2-1.38,3.72-4.45.74,4.45,2.51-.9,3.21.38-2.33-7.66.62-4.27-3.65,1.35-1.65-2.69-1.46-1.17-3.09,1.84-2.7-4-.51-3.7-3.06.21-2.14,4.1-1.16,4.3-3.27-.91-1-6.31-.58-2.76-3.14,2-2.64-5,.37-2.65-2.68.73-.47,2.22-.65,1.93-1.71-6.38.22-1.28-6.35-5.87-4.17-1.08.91.93,3.06-.35,3.9-1.56-.05-4.45.32-1.71,2,4.85,2.92-4.53-.54-.09,4.56-7-.37,1.6,3-1.23,4.81-6.21-.48,5.52,5.54-3.69,3.19,1.39-.38,1.75-2.57-.11-2.32-10.78.43,6.22-6.38.89-8-7.78,1.12-3.8-.39-6.34-7.87,2.84-4.76-13.74.93.7-8.64-5.14-2.28-6.42.33-3.61-5.92-1.49-.19-6.09,1-3.86-2,5-2,1.56-3.17-1.92-3.12-.54-.27.63-8.46-3.55-4.92,1.74,8.81-7.58,3.61-2.78,8.12,6.88,4.11-6.21-.91-.09,6.27-9.68-.46,2.22,4-1.66,6.61-6.42-.72,1,3.05-.35,5-14.11-1.57-4.48,1.09-2.41,6.19-7.27,2.1-5-.36-1.57,5.11-2.6,3.16-9.48-3.16-9.41,2.41-10.51-4.19,11.08-4.29-4.83-8.59,9.59-12.9-5.12.44.92-11.59-2.94-.16-5.08.59-2-2.92.43-3.17-5.08.26-1-5.08-.26-1.4-2.17,0-3-.47,1.94-7.42.17-1-2.57-8.7-3-2.29-1.29,3.55-2.94,4.18-2,.49-.38,2.31,1.06,1.79,0,1.63-4.54,1.6-.23,3.08,0,2.11-6.51,1.85-.6,3.45.83,2-2,1.54-3.16,1.72.2,3.2,6.63,2.1-1.44,4.91-2.72.08-2.75-1-1.54-3.2-1.58,0-2.71.1-1.09-1.62.13-1.67-2.76-.08-.53-2.81-2.61-.69-2-.31-.84-2.48-1.63-.06-1.57-1.46-2.24-2.6-.85-1.31-2.94,4.33-1,3.31-.2.79-2.14,1.12-.12,1.7-.1,1.13-3.49,1.12-.34,1.91.44.82-.8,1-1.39.9-2,.66,3,1.4.2,2.35-4.46.71,2.3,1.38-.34,2.54-5.46-.29,2.79,2-2.8,2.3,5.29,3.29.61.84-.46,3.09,3.17,1.72-.49,1.56-2.07,1.39,5.62-3.91-10.06-2.36-5.48-7.07,10.21-6.19-11.14-3.29,1.25-11.79-3.09-3.14-7.74,1.64-3.2-7.24-3.3-.18-5.7.66-2.22-3.28.48-3.57-5.71.29-1.07-5.7-9.55-1.62,1.9-4.21-2.79-5.36-2.68.41-3.9-10.11-5.79-3.4,1,2.63-4.89,5.16.23,5.16,0,1.82-5.09,1.8-.25,3.46-.06,2.36-7.33,2.08-.68,3.88.88,1.65-1.62,2.12-2.83,1.81-4,1.36,6.16,2.85.4,4.78-8.86,1.48,4.77,2.67-.68,5.15-11.9-.24,6.35,3.74-5.68,4.66.18,2.26,5,1.07,4.84,3.51-1.91,2.93-10.39-.72-3,5-1,2.59-8.59-1.54-6.69,2.46,3.11,1.07,5.31,3,1.09,4.56-1.05.05-2.06.39-2.92,1-21-4.74,14.24-9.36-10.31-14.48-1-4.08,4.92-5.05,6.1-8.35-2.56-4.75-11.79,3.63-4.61-10.39-4.75-.25-8.21,1-3.2-4.71,1-5.26-8.3.82-1.54-8.21-.43-2.27-3.52,0-4.81-.76-3-2.12,3.41-5,2.36-6.46-4.75-.17-4.58-4.27-6.52-7.6-4.83-3.69-2.08,5.72-4.75,6.74-3.22.81-.61,3.74,1.72,2.91-.06,2.62-7.34,2.59-.37,5,1.15,2.72-5.6,1.51-4.86,4.07,4.29.89,5.93,4.66-.19,4.11-5.69,1.95,8.86,4.1.58,6.87-12.17,1.9,6.58,4.08-1,7.4-17.62-.13,9.56,5.15-8.17,6.72.26,3.24,7.15,1.53,7,5-3.2,4.42-14.5-1.48-4.37,7.25-16.76-2.77,6.36-6.08-8.62-9.37,9.6-12.91-5.11.43.92-11.6-2.93-.16-5.07.59-2-2.92.42-3.17-5.09.26-1-5.07-.27-1.41-2.18,0-3-.47,1.94-7.44.21-1-2.57-8.7-3-2.3-1.29,3.54-2.93,4.17-2,.49-.39,2.31,1,1.8,0,1.62-4.54,1.59-.22,3.08-.06,2.1-6.51,1.84-.61,3.45.84,2-2,1.54-3.15,1.71-.41,2.91,7,2.16-1.2,4.73,3.83-3-3.3-3-.93-5.63,3.08-4.21-12.45-.82-2.84-6.88,1.45-.39,3.53-.82,3.6-2.54-.71-1.87-6.8.32-5.71-3.29,3.43-2.58,1.75-3.87-1.85-2.94-1.1-1.3-.19,120.41-.23,154.5h467.75c5.92-4.51,3.72-10.39-9.11-18ZM18.42,303.89c-1.36.11-3.05-.89-3-2.25.6.86,3.67.48,3,2.25ZM125.89,322.24c.12,0,.22.1.33.14,2.56,2.07-3.34,1.84-.33-.15h0ZM123.99,319.57c-.32-1.24,1.32-1.65,1.88-2.5,5.95,1.92,1.67,4.31-1.88,2.49h0ZM201.11,351.33c.12-.73,1.62-2.22,2.09-1.22s-1.24,1.52-2.09,1.21h0ZM200.62,348.95c-3.46-.59-.05-3.14,1.48-3.86,5.58,1.8-1.64,2.03-1.48,3.85h0ZM266.43,366.01c.27.1.53.25.75.43-.36,0-.7-.02-.75-.44h0ZM268.8,362.01c-1.58-1-3.82-1-5.46-1.77-4.8-7.5,15.9-.43,5.46,1.77ZM398.54,398.89c-.1-.35.07-.72.41-.85-.35.38.08,1.85-.41.85ZM438.04,410.41h1.5c-.15.63-1,.01-1.48.03l-.02-.03Z"/>
  <path id="h1-1" class="cls-5" d="M769.14,439.94c-5.65-.19,3.12-136.61-7.17-162-2.14-5.27-2.06-10.62-1.44-15.44.33-2.56,12.77-6.07,13.98-8.34.89-1.67-15.55-24.25-17.56-24.44-12.83-1.26-21.2,20.85-23.67,22.11-4.41,2.25,13.62,6.01,13.2,10.69-5.19-.58.77,2.46-.29,4.05-14.58-3.05,4.72,6.31-5.53,5.46,3.12,4.36-4.91,3.57-6.97,5.26-.68,1.26,5.75,2.88,7.32,3.49-.85,3.28-7.17.63-6.46,4.61-.92-.7-1.58-1.26-2-2.14-.46-1.41-.58-2.62-1.72-3.66-.59-.72-1.4-1.57-1.71-2.42-.27-.84.14-1.75.16-2.64-.01-.62-.53-1.1-.72-1.66-.4-1.04-.77-2.13-.87-3.33-.08-.34-.25-.65-.39-.97-.41-.88-2.14-10.39-1.24-10.63,23.22-6.22,9.68-7.57,7.78-9.67-16.33-18-21.12-2.18-27.67,1.11-25.65,12.89,6.44,11.43,12.89,10.44.93-.14,1.78,9.98,1.41,10.85-.52.93-.92,1.98-1.02,3-.02,1.55-.31,2.99-.9,4.46-.36,1.09-.05,2.42-.71,3.38-.77.78-1.61,1.26-2,2.38-.55,1.62-2.37,2.96-4,2.99-1.78.08-.84-1.35-.79-2.6-.03-.36-.18-.68-.34-1.01-.51-.91-.92-2.1-1-3.17-.1-1.2-.63-2.09-1.16-3.22-.43-1.1-.67-2.47-1.1-3.53-.39-1.84,5.8-3.5,5.16-5.31-.33-.89-7.69-2.46-9.07-1.74-6.59,3.42-9.13,6.93-1.11,4.91,1.07-.27-.51,1.78-.5,2.77-.06.53-.43,1.07-.61,1.63-.18.98-.39,2.04-.69,2.91-.22,1.57-2.1,3.3-3.44,1.74-.67-.81-.92-1.86-1.04-2.94-.32-1.38-.61-2.79-1.05-4.1-.74-1.72-3.47-4.6-1.69-5.31,9.65-3.87-10.01-.64-2.99.32,2.12.29-1.11,4.14-.82,6.29-3.5-.29-.6.47-4.18.59-1.69.92-1.75-1.68-2.06-3.09-.38-2.4-.6-4.66-1.84-6.82-1.06-1.76-2.21-9.42-3.23-11.16-2.99-5.08,6.43-3.24,13.72-6.08,6.33-2.47-4.49-8.7-11.1-6.66-1.68.52-16.34,4.15-18,4.68-8.38,2.71-9.21,7.44-8.14,8.88,4.44,5.92,10.29-2.38,14.3,2.08.84.94,1.14,2.67.32,3.88-.72,4.81-.62,7.53,2.44,11.49,3.93,1.93,3.58,5.05-8.32,5.8-2.12.13-2.93,3.19-3.66,5.19-.45,1.26-.56,2.79-.66,4.18-7.71,1.52-2.99,13.95-7.92,19.2-5.1.06-1.56-2.95.16-4.78-2.44-1.6-4.9-.21-2.17-4.88-1.52-1.71-3.51-4.5-3.14-7.64.61-5.2,7.2-6.95,6.67-9.87-.5-2.77-7.13-5.01-12.57-3.45-7.89,2.26-12.23,12.22-10.25,14.64,1.65,2.01,7.28-1.73,9.7.71,1.79,1.81.73,5.92-.98,9.99-2.06-.18-2.61.04-2.69.3-.22.75,4.52,2.56-1.15,2.85,7.29,4.68.73,1.27-.63,4.23,2.31,1.38,2.04,1.77.98,1.89-2.18.26-4.18-1.28-4.63-3.43-.98-4.64-1.89-9.23-3.47-13.65-.05-.13-.15-.39-.15-.39.51-.34,6.02-4.15,5.21-7.04-.79-2.82-11.11-15.61-15.53-14.69-5.67,1.18-7.1,17.64-6.47,19.87.56,2,5.28.27,8.63,3.45,4.95,4.71,1.57,15.08-.42,18.39-.65,1.07-2.13,3.83-4.48,3.82-.12,0-.24,0-.36.02-.43,4.06,7.08,2.38-3.37,6.12-.1-1.68-1.09-2.9-1.53-4.55-1.02-2.03-4.79-6.64-4.89-9.01-.39-1.81,13.31,2.33,7.89-5.67-.62-.92-9.84-3.11-10.6-3.94-3.16-3.48-9.96,6.23-11.1,9.62-3.91,11.67,9.73-1.28,9.12.99-1.2,2.43-4.35,11.27-2.27,13.96-.37,1.72-5.23.65-3.18,3-3.27,3.43-13.04-1.92-4.66-6.6-13.56-7.15-13.37-.82-15.78,7.64.09,2.09,8.19-.81,7.66,1.19-.17,1.51,1.78,3.97,1.13,5.42-.09.36-.1.73-.13,1.1.01,1-.82,1.78-1,2.59-.06,1-.71,1.78-1.12,2.67-.25,1.19.8,2.49.14,3.58-.33.73-.41,1.55-1.27,2.27-.5.44-1.11.82-1.58,1.3-.47.45-.72,1-.96,1.59-.52,1.03-1.46,2.39-1.21,3.86-1.55,2.04-3.85,5.46-5.48,3.98-.62-1.32-.32-3.34-.32-4.88-2-.81,1.57-.63-.8-2.15,2.22,0,3.46-4.75,3.91-5.9-2.53-10.72-15.9-3.27-15.33,4.44-1.87.82,12.06,2.39,7.79,3.03.87,5.29-.13,6.85-3.81,10.61,6.39,5.32-13.47,7.73-3.13-.78-5.39-1.88-7.05-2.93-4.27-8.26-1.03-2.31-2.87.55-.85-4.48-5.53-1,16-2.68,10.71-9.23-4.22-3.33-22.44-9.06-29.11,2.5-1.75.44-8.67,7.06-6,8.39-.34,1.31,14.45-2.73,17.65-1.76-.15,1.8-5.56,1.75-.54,3,.69,1.3-.17,3.64-1.12,3.4-1.47,2.1-3.43,4.03-4.69,6.22.47,2.31.4,4.33.19,6.52-.5,3.34-2.76,5.93-4.18,8.89-19.56,16.4-40,40.41-67.65,39.92-255.7,37.68,302.96,17.74,301.34,22.33Z"/>
  <text class="cls-1" transform="translate(227.94 182.29)"><tspan x="0" y="0">MUSHR</tspan><tspan class="cls-7" x="198.81" y="0">O</tspan><tspan x="246.21" y="0">OM</tspan><tspan x="79.87" y="60">M</tspan><tspan class="cls-6" x="129.88" y="60">A</tspan><tspan x="162.55" y="60">GIC</tspan></text>
</svg>