<?xml version="1.0" encoding="UTF-8"?>
<svg id="Layer_1" data-name="Layer 1" xmlns="http://www.w3.org/2000/svg" viewBox="0 0 120.48 120.48">
  <defs>
    <style>
      .cls-1, .cls-2 {
        fill: none;
        stroke: #fff;
        stroke-miterlimit: 10;
        stroke-width: .48px;
      }

      .cls-2 {
        fill-rule: evenodd;
      }
    </style>
  </defs>
  <g id="Artboard">
    <circle id="Oval" class="cls-1" cx="60.24" cy="60.24" r="60"/>
    <path id="Path-3" class="cls-2" d="M27.4,59.61c17.49-7.62,29.15-12.64,34.99-15.07,16.66-6.93,20.12-8.13,22.38-8.17.5,0,1.61.11,2.33.7.61.49.77,1.16.85,1.62s.18,1.53.1,2.36c-.9,9.49-4.81,32.51-6.8,43.14-.84,4.5-2.5,6-4.1,6.15-3.48.32-6.13-2.3-9.5-4.51-5.28-3.46-8.26-5.62-13.39-8.99-5.92-3.9-2.08-6.05,1.29-9.56.88-.92,16.24-14.88,16.53-16.15.04-.16.07-.75-.28-1.06s-.87-.21-1.24-.12c-.53.12-8.97,5.7-25.31,16.73-2.39,1.64-4.56,2.45-6.51,2.4-2.14-.05-6.26-1.21-9.33-2.21-3.76-1.22-6.74-1.87-6.48-3.94.14-1.08,1.62-2.19,4.46-3.31Z"/>
  </g>
</svg>