<?xml version="1.0" encoding="UTF-8"?>
<svg id="hills1" xmlns="http://www.w3.org/2000/svg" version="1.1" viewBox="0 0 1920 1080">
  <!-- Generator: Adobe Illustrator 29.7.1, SVG Export Plug-In . SVG Version: 2.1.1 Build 8)  -->
  <defs>
    <style>
      .st0 {
        fill: none;
      }

      .st1 {
        fill: #16122b;
      }

      .st1, .st2 {
        fill-opacity: 0;
      }

      .st2, .st3 {
        fill: #fff;
      }

      .st3 {
        isolation: isolate;
        opacity: .5;
      }
    </style>
  </defs>
  <path id="cloudStart-L" class="st2" d="M71.1,92.9c-.1,0-.3.2-.4.3-1.9-8.3-13.5-3.3-13.9,2.6.2,1.8,1.2,6.2-2.3,6.3-5.6-2.6-5.5.3-9.8,2.7-2.6-2.5-10-.6-9.9,3.4,49.8-1.3,91.9-1.8,126.3-1.6,1.4-6.6-5.5-5.8-9.2-4.5,1.5-3.2-4.1-2.8-5.5-2,.1-2.1.2-3.4-2.1-2.6,2.8-9.8-13.1-10.3-14.1-3-.6,3.2-1.2,4.8-1.8,4.8-4.5-1.5-3.8-.3-7.8.9-2.3-1.1-2.3-5.2-6.4-3.1.2.3-.3.4-.4.6,3.1-5.3,4.2-10.3-2.3-10.4-.2-23.2-37.4-15.3-30.4,6-1.9-3.8-6.7-2.5-9.8-.3M144,97.7h0c0,.1,0,0,0,0h0M199.6,101.7c2.9-9.9-15.9-8.5-12.4-.4-5.9-.7-3.4-1.7-7.4,2.1-1,.3-3-2.3-3.6-2.4-2.7.4-6.2,2.6-5.7,5.7,4.2.1,13.6,0,28.4-.3.4-1.1.6-2.7.6-4.7M211.9,100.1c-3,0-5.5,2.9-5.3,6.1,4.5-.1,9.3-.3,14.5-.4,2.5-5.4-4.8-4-6.3-3.6-1.3.3-2-2.1-3-2.1h.1Z"/>
  <path id="cloudStart-R" class="st2" d="M710.3,103c0,1,1.2,1.6,2.2,1.2,17.9,1.7,6.4-8.6-2.2-1.2M677.2,82.2c1.3-14.4-17.6-14.4-23.3-4-3.9-3.6-10.3-3-15.1.2-3.2-19-36.9-14.1-38.2,3.4-7-3.1-14.1,3.4-16.9,9.7-4.5-8.1-12.7,1.8-11.6,7.7-2.5-.5-11.8,1.6-11,6.1,42.2-1.2,102.5.2,144.8-.8,3.3-4.7-5.7-6.8-7.6-5.1-.2-4.8-4.9-8.8-9.5-5.3-.6-6.1-5.4-9.8-11.8-8.9.1-.8.2-1.8.2-2.9M730.2,104c2-2.8-6-3.4-4.2-.1.5.8,3.6.8,4.2.1Z"/>
  <path id="cloudsBig-L" class="st3" d="M286.9,293.2c-94.4,24-191.8,46.4-288.9,41.9v-162.1c13.2,4.6,24.7,14.5,30.1,27.5,10.1-3.4,21,1.7,28.5,9.2,19.1-13,49.9-6.4,61.2,14.2,5.8-1.7,14.9,3.6,16.4,9.5,22-21,63.1-11.5,73,17.7,10.1-4.8,22.4,4.3,20.8,15.3,21.5-7.9,51.8,3.9,58.8,26.9l.1-.1Z"/>
  <path id="cloudsBig-R" class="st3" d="M797.3,100.5l26.8,179.4c-163.5,24.8-334,76.2-497.6,41.2,8.7-15.6,30.8-21.9,46.5-13.3,1.3-7.7,12.5-13,19.2-8.8,2.5-36.5,49.1-57.4,76.5-31.8,6.3-8.4,19.2-12.4,29.1-8.9,5.1-12.3,18.3-19.2,29.7-12.4.7-39.5,48.9-63.5,80.9-40.4,5.1-4.6,15.4-4.4,21.2-.8,9.8-19.9,38.8-31.3,59.6-23.7,2.5-30.2,39.5-54,67.9-40.6,3.5-18.2,22.4-34.5,40.1-39.7l.1-.2Z"/>
  <path id="h1-9" class="st0" d="M696.36,409H75v-73.53c10.19-.52,20.5-.36,30.05-3.65,8.11-2.8,15.84-8.49,23.78-11.33s18.18,1.84,25.36-4.85c10.81-10.08,17.81-25.85,32.52-22.84,6.21,1.27,12.09,3.66,18.43.84,6-2.65,9.73-9.46,14.69-13.54,2.87-2.35,6.42-3.2,9.35-5.49,1.65-1.28,5.45-6.37,7-6.92,7.94-2.93,10.34,2.69,18.56-3.47,6.45-4.84,8.52-8.21,15.45-5,5,2.35,11.89,10.09,16,15.37,8.71,11.41,15.81,23.18,26.52,32.94,11.62,10.63,21.59,9.37,34.67,5.83,16.12-4.37,18.32,9.06,32.24,15.28,7.45,3.32,13.23-1.7,19.6-2.08,3.64-.22,5.85,2.12,9.37,1.82,3.12-.27,4.08-4.44,8.33-3,7.32,12.31,15.75,20,28.21,20.59,14.32.7,27.12.76,39.73-4.94,5.95-2.62,11.71-5.64,17.25-9.03,8.71-5.36,11.22-2.82,19.35,1.5,11.66,6.21,25.31,1.08,36.56,9.18,5.53,4,8.36,12.23,14.64,14.79,4.86,2,15.59.38,20.4-1.18,13.47-4.38,21.52-16.59,36.56-17.33,13.57-.67,25.19-4.17,39.11-2.31,10.91,1.46,18.72-.1,27.63-2.61v74.96Z"/>
  <path id="h1-8" class="st0" d="M750,500V212.49c-4.75,1.15-8.88,4.07-11.54,8.17-2.21,3.35-4.39,7.9-7.92,7.69-1.44-.08-2.78-1-4.23-1.08-5.12-.2-7.87,10.11-12.84,8.66.35-1.45-.53-2.91-1.98-3.26-.19-.05-.39-.07-.59-.08-1.49.1-2.72,1.38-3.77,2.67-3.35,4.19-5.95,8.93-7.7,14-1.76-6-8.53-7.93-13.43-5.51s-8.31,7.76-11.48,12.87l-17.31,27.92c-4.54,7.33-11.47,15.57-18.52,12.15-3.38-1.64-5.76-5.76-9.32-6.73s-7.55,1.64-11.18.48c-5.45-1.76-8.37-11.36-14-10.4-3.13.54-5.93,4.55-8.87,3.14-1.52-.73-2.44-2.76-4-3.36s-3.32.52-5,1.13c-7.4,2.73-14.16-5.41-21.27-9.08-12.35-6.38-26.85,1.31-36.59,12.45-3.1,3.54-6,7.5-9.78,9.89-3.22,2-6.88,2.8-10.48,3.54l-28.2,5.83c-15,3.07-30.14,6.2-44.07,13.54-6.63,3.48-13,7.91-19.94,10.16-10.83,3.5-22.26,1.5-33.47,1.18-9.18-.27-102.2,122.09-140,171.54h507.48Z"/>
  <path id="h1-7" class="st0" d="M749.79,500l.21-260.88c-.58-.62-1.15-1.25-1.74-1.87-5.67-5.95-12.57-12.05-20.78-11.77s-15.44,7.12-23.74,6.87c-7.55-.23-14.09-6.33-21.65-6.11-5.79.17-10.74,4-15.29,7.6-27.02,21.36-337.91,189.33-482.28,266.16h565.27Z"/>
  <path id="h1-6" class="st0" d="M24.7,282.8c10.9,1,20,2.4,27.6,4.1-.1-.2-.3-.3-.3-.3-10.4-8.6-1.3-5.3-1.3-5.3-7.5-7-.3-3.9-.3-3.9-5.2-8.7-.3-5.8-.3-5.8,1.1.1-.1-1.8-.1-1.8-.6-2,.3-2.9.3-2.9-1.9,1.2-1.1-.3-1.1-.3.5-.9,1.2-1.7,1.2-1.7-2.8-4.3-.2-2.4-.2-2.4,2.7,1.4,1.3-.2,1.3-.2-2.5-2.9.3-1.3.3-1.3,1.2.4,0-1.3,0-1.3-2.1-3.1-.5-2.9-.5-2.9-1.4-3.3-.3-2.6-.3-2.6.9.6,1.2,2,1.2,2,.3-.9-.3-3-.3-3-1.1-2.2.5-1.4.5-1.4l-.3-5.3c0-5,.4-1.1.4-1.1l.6,6.1c.7,1.2.4,2.2.4,2.2,1.5.2,1.1,2.6,1.1,2.6,1.4.7.5,2.4.5,2.4-.4.6.1,1.1.1,1.1.4.6.5,2.1.5,2.1,1.3-1.9.6,1,.6,1-.8,2.8,0,1.5,0,1.5,1.5-2.5.8,1.3.8,1.3-.5,2.1.5.9.5.9,1.7-1.9.7,2.2.7,2.2,5.2-2.5,1.7,3,1.7,3-2.8,4.1-.9,2.9-.9,2.9,5.1-3.4,2.1,1.4,2.1,1.4-2.8,3.8-.3,2-.3,2,6.2-2.4,1.3,3.1,1.3,3.1-4,3.7-1.7,2.6-1.7,2.6,4.8-2.6-.9,2.2-.9,2.2-1.4,1.1-1.2,2.1-1.2,2.1l2.3-1.9c1.7-1.2.4.7-.8,2.3,2.3.6,4.4,1.3,6.4,1.9,0-.2-.2-.3-.2-.3-3.7-5.3-1-2.5-1-2.5,2.3,1.8,0-1.7,0-1.7-2.7-4.5-.6-2-.6-2,2.6,2.4,1.2-.1,1.2-.1-2.3-3.7-.2-3,0-3-2.2-3-.3-2.5-.3-2.5-2.3-1.9.5-1.6.5-1.6-2.2-.5-1.1-.8-1.1-.8-2.5-1.8-.3-1-.3-1-.6-1,.1-.7.1-.7,3.1,2.1,1.2,0,1.2,0-2.2-2.1-.3-1.6-.3-1.6-2.4-2.5-.5-1.5-.5-1.5,3.4,2,1.9.3,1.9.3-4-2.8-.8-1.6-.8-1.6,1.6.6.5-.7.5-.7-2.1-2.4-.4-1.5-.1-1.4-2.1-2.3-.3-1.2-.3-1.2-2-2.8.5-1.2.5-1.2-2.3-3.4-.1-1.6-.1-1.6-.4-2.7.4-3.3.4-3.3,1,.7.9,3.1.9,3.1,2.1-2.2.7.8.5,1.1,2.7-2.5.2,2.5.2,2.5v.9c4.1-3.6,1,1.1,1,1.1,4-2.3.7,1.5.7,1.5-1.5,1.5,0,1.1,0,1.1,2.2-.4,1.1,1.2,1.1,1.2.6.4-.3,1.9-.4,2.1,3-3.6.7,1.2.5,1.6,2.7-3.8.3,1.4.3,1.4,2.6-3.2.3,1.3.3,1.3,2-1.9.5,2.2.5,2.2,1.7-1.7.7.4.7.4-1.9,4-.5,2.2-.5,2.2,3.9-3.8,1,.7,1,.7-2.6,4.2-.2,1.8-.2,1.8,3.2-2.5,1.2.4,1.2.4-2.1,3.4-.2,1.6-.2,1.6,4.4-3.4,0,2.8,0,2.8,5.8-3.5,1.5.6,0,1.9,1.6.7,3.1,1.4,4.4,2.1,3.9,2,7.3,4.7,10.4,7.7,2.4,2.3,5.8,4.6,9.6,6.6-1.9-4.6-.4-2.7-.4-2.7,3.2,3.9,2,.3,2,.3-2.7-5.5,0-3,0-3,2.6,1.8,1-3.2,1-3.2-1.8-5.7,1.4-2.1,1.4-2.1-2.4-6.6,0-2.5,0-2.5-.3-5.6.3-6.6.3-6.6,1.3-.7,1.7,5.5,1.7,5.5,2.7-2.9.6,3.2.6,3.2,3.4-3.6,1.5.2,1.4.4,2.4-1.5,1.5.9,1.1,1.7,1.3.1,3.1.9,3.1.9-7.2-12-.5-8.1-.5-8.1,1.6.1-.1-2.4-.1-2.4-.7-2.6.3-3.9.4-4.1-2.6,1.6-1.6-.4-1.6-.4.7-1.2,1.6-2.3,1.6-2.3-3.9-5.9-.3-3.3-.3-3.3,3.7,2,1.8-.3,1.8-.3-3.5-4.1.4-1.8.4-1.8,1.6.5,0-1.9,0-1.9-2.9-4.3-.7-4.1-.7-4.1-2-4.6-.4-3.6-.4-3.6,1.3.8,1.6,2.8,1.6,2.8.4-1.2-.4-4.1-.4-4.1-1.6-3,.7-1.9.7-1.9l-.4-7.3c0-6.9.5-1.6.5-1.6l.8,8.4c1,1.7.6,3.1.6,3.1,2,.4,1.5,3.6,1.5,3.6,1.9,1,.6,3.4.6,3.4-.6.9.2,1.5.2,1.5.6.8.7,2.9.7,2.9,1.8-2.7.8,1.4.8,1.4-1.1,3.9,0,2.1,0,2.1,2.1-3.5,1.1,1.8,1.1,1.8-.7,2.9.7,1.3.7,1.3,2.3-2.7,1,3.1,1,3.1,7.2-3.4,2.4,4.2,2.4,4.2-3.9,5.6-1.3,4.1-1.3,4.1,7.1-4.7,2.9,1.9,2.9,1.9-3.9,5.2-.4,2.8-.4,2.8,8.5-3.3,1.8,4.4,1.8,4.4-5.6,5.2-2.4,3.6-2.4,3.6,6.6-3.7-1.2,3-1.2,3-1.9,1.5-1.7,3-1.7,3l3.2-2.6c2.8-2,0,1.8-1.9,4.2.8.1,1.7.2,2.5.3-.3-1.8,2.1-.3,2.3-.2-2.5-5.8-.8-3.7-.8-3.7,3.2,3.9,2,.3,2,.3-2.7-5.5,0-2.9,0-2.9,2.6,1.8,1-3.2,1-3.2-1.8-5.7,1.4-2,1.4-2-2.4-6.6,0-2.5,0-2.5-.3-5.6.3-6.6.3-6.6,1.3-.7,1.7,5.4,1.7,5.4,2.7-2.9.6,3.2.6,3.2,3.4-3.6,1.5.2,1.4.4,2.9-1.8.9,2,.9,2-1.8,4.3-.2,2.5-.2,2.5,3.1-2.5,1.1.5,1.1.5-1.7,2.9,0,1.5,0,1.5,2.4-1.7.8,1,.8,1-1.9,3.6.2,1.8.2,1.8,3.8-2.2,0,4.2,0,4.2,5.3-2.6,3.8-.8,2.1.9,8.7,2.7,15.3,7,19.1,9.9,3.6,2.7,7.4,5.1,11.4,7,.2-.2.5-.3,1-.5,0,0-1-1.4-.3-2.9,0,0-3.6-3.2-.2-1.7-.1-.2-1.6-2.7.3-1.9,0,0-1.4-2.1.9-1.4-.2-.2-2.2-3,.1-1.9-.1-.1-1.5-1.9-.2-1.7,0,0,.6-.3.1-1.2,0,0-.7-.9.2-2.3,0,0,1.1.6.9,2.2,0,0,1.2-.7.2,1.5,0,0,1.1-.6.4,1.6.2-.2,1.5-1.8.9,1.1,0,0,1.4-1.6.3,2,0,0,2.8-1.5,1.5,1.1,0,0,2-.3,1.8-1.9,0,0-4.1-4.4-1.2-2.7,0,0-2.4-3.9.2-1.9,0,0,1.9,1.5-.6-2.1,0,0-3-3.8.5-1.7,0,0,1.8,1.3.5-1.9,0,0-2.5-5.1.1-2.1,0,0-.1-7.4.7-.8,0,0,2.1-3.2.8,3.2,0,0-.7,5.5.6,2.6,0,0,1.6-4,.4,2.8,0,0-.6,2.9.8.4,0,0,1.6-2.6,0,3.2,0,0-.9,2.3.2,1.3,0,0,1.3-2.3.3,1.8.1-.1,1.3-1.1.7,1.7,0,0,1.4-1.8.5,1.5,0,0,0,1.7,1.2-.7,0,0-1.8-3.1.2-1.7-.1-.2-1.4-2.1,0-1.3,0,0,1,.4-.3-1,0,0-1.6-1.8.4-.9,0,0-.4-1.5.2-2.8,0,0,.7,1,.7,2.6,0,0,2-2.5.4,1.8,0,0,1.9-1.5.8,1.5,0,0,1.7-1.5.6,1.5,0,0-1.1,2.8.6,2.6,0,0,1.4-.1.7-1.7,0,0-1-2.8.5-1.2,0,0,1.6,1.7-.1-1.3,0,0-1.4-2.2.3-.7,0,0,1.8,1.3.1-1.1,0,0-1.6-2.4.5-.9,0,0,1.4.8-.3-1.4,0,0-2-3.3.6-1.5,0-.2-.6-1.5.6-1.4,0,0,1.1,1,.1-1.4,0,0-2.7-3.6-.6-2.1,0,0-.4-1.4.5-.8-.2-.2-1.2-1.4-.4-2.4,0,0,.7-1.4.4-3,0,0-.3-3.9.7.7,0,0,1.2.2.9,3.2,0,0,1.3-.8.3,1.7,0,0,1.8-1.4.5,2.1,0,0-.7,1.4.3,2.3,0,0,2-1.1.9,1.3,0,0,1.9-.4-.6,1.9,0,0-1.6,1.7,1.5.3,0,0,1.5-1-.4,1.8.2,0,2-.9.3,2.5.2,0,1.8-.9.9,1.7,0,0-1,1.3.6,1.8,0,0,.6,3.2,1-.3,0,0-1.6-4.5,0-2.5-.2-.3-2.2-4.5.4-1.6,0,0-1.5-3.7.7-1.9,0,0,1.2.9-.2-2.5,0,0-1.7-3.5,0-2.5,0,0,0-3.2.2-3.8,0,0,1,2,.9,3.9,0,0,1.3-2.5.8,1.5,0,0-.6,3.5.4,3.5,0,0,1.9-2.8.6,1.5,0,0,1.6-2,1,.6,0,0,0,1.6,1-.3,0,0-1.7-3.5-.5-2-.1-.3-1.6-3.6.2-1-.1-.3-1.7-4.4.3-1.7,0,0-.2-9.4,1-.5,0,0,1.5-2.8.4,1.9.1-.2,1.2-1.6.4,1.9.1-.1,1-1.1.2,1.9,0,0-.4,1.2.7,1.4,0,0,1.4,0,.6-2.3,0,0-1.5-3.7.5-1.5-.1-.4-2-5.6.1-3,0,0-1.2-3.8.1-2.4,0,0-.2-4.7.5-5.9,0,0,.7,2.6,1,6.7,0,0,1.6-3.2.7,2.6,0,0-.7,2.8,1.6-.4,0,0,1.2-2.8.3,2.7,0,0,2.4-2.8.5,2.7,0,0-.7,2.1,1.3-.2,0,0,1.8-2.9.7,1.7.2,0,2.2-.9.8,2.3,0,0,1.8-.5,0,3.1,0,0,3-2,1.2,1.3.2,0,2.4-1.2,1.1,3.5.2-.2,2.7-3.3.9,1.7,7.9,2.3,12.4,6.6,14.4,9.1,2.1,2.5,4.4,4.8,7,6.6,8.4,5.7,18,7.6,26,8.5,10.8,1.2,21.4,3.9,31.3,8.3,8,3.5,14.4,7.1,16.9,8.9,1,.7,2,1.4,3,1.9,12.6,6.9,35.5,8.2,45.2,8.5,5,.1,9.9.5,14.8,1.3,25.5,4,50.1,14.9,63.1,21.4L11.3,465.6-7.4,276.9c12.8,4.7,32.1,5.9,32.1,5.9ZM110.1,306.3c-.1.4-.4.9-.4.9h0c1,.3,1.9.6,1.9.6-.6-.5-1-1-1.5-1.4v-.1ZM114.4,316.9c-.2-1-1-1.9-1-1.9-.4-.4-.9-.7-1.3-1.1-.6.6-1.3,1.2-1.7,1.5,1.4.5,2.7,1,4,1.4v.1ZM110.7,312.8c-.1-.1-.3-.2-.4-.3-.2.4-.4.6-.4.7.3-.1.5-.2.8-.4h0ZM108.8,306.1c.3-.2.5-.3.7-.4-.3-.3-.6-.6-.8-.9-1.5,2.7.1,1.3.1,1.3ZM107.6,304.1s.2-.1.3-.2c-.3-.3-.5-.6-.6-.9-.8,2.4.4,1.1.4,1.1h-.1Z"/>
  <path id="h1-5" class="st0" d="M300.32,425.63c-7.78-5.38-17.22-7.93-25.57-12.43-14.59-7.87-25.69-21.55-39.79-29.71l-.42-3.55c-.55.82-.92,1.74-1.09,2.71-2.48-1.36-5.07-2.5-7.74-3.43-.07-.4-.17-.8-.31-1.19-.62-1.64-2.43-2.82-3.72-1.84-.56-5.51-1.12-11.01-1.69-16.51-1.33,4.04-2.24,8.2-2.73,12.43l-1.17-3.48c-.54,2.11-.73,4.29-.56,6.46.05.58.12,1.19.13,1.79-1.51-.21-3-.39-4.55-.53-.28-2-.55-4-.82-6-.01-.59-.22-1.17-.59-1.63-.88-.85-2.11.31-2.8,1.37-.07-4.11-.56-8.19-1.47-12.2-1.33,5.33-2.67,10.69-4,16.06-1.32-3.35-2.32-6.81-3-10.35l-1.34.65c-.12-4.22-.75-8.41-1.85-12.48-.95,2.12-1.77,4.3-2.46,6.52l-.24-22.71c-1.52.77-1.93,3-2.12,5l-1.77,17.15-.78-9.93-1.2,13.51c-.13,1.39-.82,3.26-2,2.83-.2-3.29-.41-6.58-.61-9.86-.86,4.05-1.15,8.21-.86,12.34.27,1.88.24,3.79-.07,5.66-.09.38-.23.76-.41,1.11-.92-.17-1.85-.33-2.77-.53.37-4.89.17-9.81-.61-14.65-.35,4.76-.7,9.52-1.06,14.28l-1.91-.44c-.4-1.36-.99-2.66-1.77-3.85-.07,1.13-.17,2.25-.28,3.38-2.83-.7-5.64-1.49-8.44-2.33-.45-2.55-.68-5.14-.7-7.73,0-2.21.08-4.65-1.13-6.35-.77,3.83-1.55,7.67-2.32,11.5l-2.94-5.22c-.33,1.05-.81,2.04-1.43,2.94-1.59-6.37-2.28-12.92-2.06-19.48.1-.83,0-1.68-.28-2.47-.34-.74-1.22-1.21-1.81-.72-.33.38-.54.85-.58,1.35-.62,3.45-.58,7.51-2.89,9.76-.56-2.56-1.26-5.09-2.09-7.57-2.17.41-.33,6-2.51,6.33-.42,0-.84-.1-1.22-.29-1.88-.61-4.05.95-4.43,3.18-.36-1.86-.85-3.69-1.49-5.48-1,1-1.37,2.63-1.93,4.05s-1.61,2.84-2.94,2.73c-1.18-.09-2-1.43-2.29-2.79-.14-1.38-.11-2.78.11-4.15.26-3.28-.15-6.57-1.22-9.68-.88,4.08-1.76,8.16-2.65,12.23-.09.59-.38,1.13-.84,1.52l-1-.49c-.08-.17-.14-.34-.19-.52-.47-1.59-.93-3.18-1.39-4.77-1.47.37-2.68,1.41-3.28,2.8-1.43-.74-2.86-1.49-4.28-2.25-.4-1.45-.1-3.37-.22-5-.25-1.88-.87-3.68-1.82-5.32-.05,2.88-.53,5.74-1.43,8.47-11.66-6.3-23.87-12.92-37.13-12.57-28.04.74-47.2,31.67-74.5,36.12v123.62h339.58c-11.53-24.85-34.68-63.51-40.26-67.37Z"/>
  <path id="h1-4" class="st0" d="M751,500v-67.95c-32.59-68.73-53.56-58.59-101.56-92.59-.14-1-.27-2-.41-3-.54.67-.92,1.46-1.09,2.31-2.51-1.16-5.1-2.14-7.75-2.93-.19-1.82-2.36-3.63-4-2.59-.57-4.67-1.13-9.36-1.7-14.08-1.32,3.41-2.24,6.97-2.73,10.6l-1.16-3c-.65,2.29-.79,4.7-.43,7.05-1.51-.19-3-.33-4.56-.46-.51-2.46-.45-9.74-4.2-5.36-.07-3.52-.57-7.01-1.47-10.41-1.33,4.57-2.65,9.14-3.95,13.71-1.31-2.83-2.32-5.79-3-8.83l-1.35.55c-.13-3.62-.74-7.2-1.84-10.65-.94,1.8-1.76,3.65-2.46,5.56l-.25-19.38c-4.16,4.58-2.3,13-3.88,18.87l-.78-8.47c-1.32,4,.82,12.1-3.16,13.94-.21-2.81-.41-5.61-.62-8.41-2,5.29.27,11.14-1.33,16.31-.93-.15-1.85-.29-2.77-.45.37-4.18.17-8.39-.61-12.51-.36,4.06-.71,8.12-1.06,12.18l-1.91-.37c-.41-1.18-1.01-2.29-1.77-3.29-.07,1-.17,1.93-.28,2.89-2.83-.6-5.65-1.27-8.44-2-1.27-3.84.32-8.58-1.83-12l-2.33,9.81-2.94-4.46c-.33.91-.81,1.76-1.43,2.51-3.72-8.44.44-31.59-7.61-9.86-.57-2.19-1.27-4.35-2.1-6.46-2.55,9.5-4.65,1.59-8.16,7.87-.38-1.59-.91-3.15-1.58-4.65-7.5,13.85-6.56-1.79-8.28-8.39-1.32,3.76-1.37,8.43-3.48,11.73l-1-.42c-.6-1.47-1-3-1.58-4.51-1.39.27-2.59,1.15-3.27,2.39l-4.28-1.92c-.37-2.95,0-6.25-2-8.82-.05,2.48-.54,4.92-1.44,7.23-49.29-34.29-86.85,28.8-137.17,20.71l-.24-2.24c-.18.77-.31,1.55-.38,2.34-.65.1-1.29.21-1.93.33.06-1.45-.13-2.9-.56-4.29-.12,1.36-.25,2.72-.37,4.08-2.29-.67-1.19-4.81-1.93-6.76-.15,1.37-.31,2.74-.47,4.1-.93-2.87.08-7.13-2.36-9.15l-.15,9.4c-.44-.93-.94-1.84-1.5-2.7-.66,1.65-1.03,3.4-1.12,5.17l-.82-.27c-.39,1.37-.93,2.69-1.62,3.93l-.28.12c-.77-2.14-1.55-4.28-2.32-6.41-.55,1.63-.85,3.33-.89,5.05-2.66-2.43-2.31,2.71-2.89,4.27l-.58-.55c-2.76,1.71-1.29-3-2.12-4.32l-.71,1.44c-.3-1.79-.86-3.52-1.66-5.14-.34,2.28-.68,4.55-1,6.83-4.21-.74-1.58,5.19-3,7.44l-.64.42c-.34-.64-.79-1.22-1.31-1.72l-.93,1c-1.73-1.42-.31-4.09-1.9-5.61l-.84,4.95c-.87-.25-1.61-.82-2.09-1.59-.19.78-1.24,5.51-2.26,9.24l-8.66,5.85c-.61-2.7-1.04-5.43-1.3-8.18,0,2.68-2,7.92-2.88,11l-3.06,2.07c-1-3.79-2.06-7.14-2.86-7.28-.47,1.36-1.07,8.89-1.53,10.25l-1.7,1.15c-.87-4.35-1.81-9.29-2.35-11.4-.83,2-.58,8.93-.31,13.19l-5.71,3.87c-.65-2.27-1.49-5.21-2.16-5.78-.66,1.48-.89,5.65-1.27,7.23-4.69-4-3.69,5.18-7.43-5.62-.83,2.11-1.53,4.26-2.09,6.46-8.06-21.78-3.89,1.47-7.62,9.86-.62-.75-1.1-1.6-1.43-2.51l-2.98,4.48-2.32-9.81c-2.32,4.54-.48,10.52-2.67,15.35-12.35,7.5-87.61,76.23-133.54,112.42l593.74.04Z"/>
  <path id="bird" class="st1" d="M110.61,428.6c-2.5,2.06-13.64-.79-17.86.84,0,0,1-2.72,2-2,0,0-.12-1.36-1.07-1.21-1.34-.5-2.84-.19-3.88.79,0,0-1.65-.58-2.32-.24,0,0-5.63-5.13-9.77-9.69s-11.8-7.09-13.71-13.47c0,0-.81,2.45,2.63,6.06,0,0-5.81-5-6.19-7.68.26,2.92,1.71,5.61,4,7.44-1.93-1.61-3.54-3.69-5.54-5.23v-.06s0,.04,0,.06c0,1.75,2,3.92,3.22,5.57-1.37,0-4.53-5.34-4.08-3.26-.05-.08-.09-.17-.13-.26.6,1.69,1.54,3.25,2.74,4.58-.53-.07-1.69-1.6-1.86-.88-.03-.05-.06-.1-.09-.15-.16,0,1.38,4.78,4.17,6.74-3-.23,4,4.44,5.37,4.34.4,1.4,3.53,3.2,3.86,4.5,2.33,2.76,4.63,7.07,8.58,8,.46,3.8-10.7,6-4.75,7.88.4.94,1.34,1.53,2.36,1.48.2,1,1.59,1.14,2.38.73.3.49,1.61,2,2,1.31.53-2.57,1.4-5.06,2.58-7.4.48-.2.89-.53,1.37-.71-.47,1.42,2.28-.32,3-.38,3.7-.01,7.39-.43,11-1.25.85.59,2.52,1.46,2.37-.34,1.23,1.09,4.19,1,1.77-1,.84.36,1.79.36,2.63,0-.62-.3-1.2-.68-1.71-1.15,1.88.38,6.14-.19,2.11-1.38,1.34-.28,2.42-1.27,2.82-2.58Z"/>
  <path id="h1-3" class="st0" d="M599.72,500v-91.11c-33.51-10.65-62.1-50.46-98.56-20.79-.8-2.41-1.23-4.93-1.27-7.47-1.85,2.68-1.48,6.14-1.8,9.12-1.25.67-2.51,1.33-3.77,2-.53-1.23-1.6-2.15-2.9-2.48-.47,1.55-.86,3.14-1.39,4.67l-.86.44c-1.9-3.54-1.9-8.23-3.08-12.14-1.52,6.24-.48,23.06-7.3,8.68-.59,1.55-1.05,3.15-1.39,4.78-3.06-6.27-5.18,1.34-7.2-8.14-.74,2.19-1.36,4.42-1.85,6.68-7.05-22.33-3.46,2-6.72,10.2-.56-.79-.98-1.67-1.26-2.6-.87,1.54-1.74,3.08-2.6,4.62-.67-3.39-1.33-6.77-2-10.15-1.91,3.59-.5,8.47-1.62,12.42-2.47.74-5,1.44-7.45,2.06-.1-1-.18-2-.24-3-.69,1.05-1.21,2.2-1.56,3.41l-1.69.38c-.31-4.2-.62-8.4-.94-12.6-.69,4.27-.86,8.61-.53,12.93-.82.17-1.64.31-2.45.47-1.42-5.4.55-11.39-1.18-16.87l-.54,8.7c-3.64-2.23-1.56-10.31-2.79-14.41l-.69,8.75c-1.43-6.09.32-14.52-3.43-19.51l-.21,20c-.62-1.96-1.34-3.88-2.18-5.75-.97,3.59-1.51,7.28-1.62,11l-1.19-.57c-.6,3.12-1.48,6.18-2.64,9.14-1.16-4.73-2.32-9.46-3.49-14.18-.81,3.55-1.25,7.18-1.33,10.82-3.5-4.54-3.22,3.32-3.7,5.54-1.35.13-2.69.28-4,.47.31-2.43.18-4.9-.39-7.28l-1,3.07c-.43-3.74-1.24-7.42-2.42-11-.49,4.86-.99,9.72-1.49,14.57-1.51-1.13-3.44,1-3.55,2.68-2.36.81-4.65,1.82-6.84,3-.16-.86-.5-1.67-1-2.39-.12,1-.24,2.09-.37,3.13-34.54,30.71-61.91,27.5-84.12,78.71h290.6Z"/>
  <g id="h1-2">
    <path class="st0" d="M439.34,464.59c2.08-.21,4.95-.61,7.01-1.41s2.12-3.54,1.6-5.08c2.65.82,5.81,1.26,7.8,1.44,1.49.13,1.23-.43,1.08-.82-.18-.49-.83-1.32-1.72-2.26-1.09-1.17-1.01-2.13-1.78-2.72-.78-.6-1.7-1.64-4.02-1.95-2.32-.31-3.87.39-5.81,1.03s-3.57,1.33-5.85,1.78c-2.28.45-.2,1.18,1.01,1.39,1.21.21,3.09.54,5.44.95.49,2.74-1.88,5.1-5.62,4.87-2.58-.16-6.97-.72-8.02-.83-1.05-.11-2.02-.1-3.12.69l-6.85-1.62c2.8-1,4.1-1.68,5.21-2.53.97-.75,1.45-1.57,1.45-2.38,1.42.35,3,.73,5.07.96,2.08.24,1.69-.89,1.34-1.5-.35-.61-.79-1.11-.76-3.33.01-.9-.68-1.53-1.74-2.07-1.44-.73-3.6-.85-4.63-.77-1.32.11-2.24.57-3.22,1.24-.97.67-2.02,1.33-3.08,1.6-1.07.26-.92.85-.14,1.3.79.45,2.14,1.11,4.04,1.76-.3.6-1.18,1.39-2.46,1.88-1.28.48-3.57,1.4-8.29,2.13l-13.81-3.29c5.62-.31,9.33-1.5,12.01-2.66,2.97-1.29,4.22-3.85,4.35-7.9,2.18.65,5.92,1.45,9.67,2.24,3.75.79,10.07,1.63,14.75.4s2.88-4.7.6-6.66c-2.24-1.93-5.91-5.52-7.65-6.79-1.74-1.28-5.06-6-8.22-8.18-3.33-2.3-10.5-2.98-14.85-1.8-3.86,1.05-9.23,1.68-11.31,1.88-2.07.2-7.99.76-12.17,2.27-4.04,1.47-2.61,5.06.82,7.22,2.24,1.41,10.3,4.04,14.37,5.15-.45,1.87-2.03,3.9-6.7,5.13-5.5,1.45-7.88,1.56-9.93,2.04-1.5.35-4.86,1.1-7.03,2.58l-5.14-1.21c3.26-2.39,4.7-4.65,5.13-5.82,1.33.42,4.07,1.24,6.59,1.67,2.49.43,2.91-.8,3.05-1.46.15-.66.27-1.84.37-3.56.1-1.72-.99-3.63-3.78-4.69-3.17-1.21-7.01-1.3-9.86-1.2-2.45.09-5.44.93-7.71,1.56-2.28.64-1.25,1.77-.26,2.51.99.74,3.75,2.09,5.64,2.9-1.16,1.67-6.27,4.27-9.9,5.51l-5.38-1.31c-.59-.9-2.31-3.18-2.98-4.25-2.41-3.88,1.22-5.63,2.86-7.07,1.64-1.44,5.68-3.31,8.52-4.56,1.6.7,3.94,2.07,8.51,3.23,4.57,1.15,6.85-.16,7.52-1.29.6-1,1.15-2.57.72-4.75-.55-2.81-4.42-5.55-9.79-6.49-5.37-.94-12.1-.3-16.57.48-3.09.54-1.97,2.55-.39,3.67,1.58,1.12,3.6,2.21,5.32,3.04-3.4.96-7.86,2.69-10.42,4.51-2.69,1.91-3.84,3.99-4.36,4.83-.52.84-2.04,3.7,1.46,6.37l-5.89-1.4c.7-.52,1.34-.82,2.86-4.13,1.52-3.31,1.78-6.61,1.04-11.32-.66-4.19,1.38-7.33,3.13-10.55,19.69,2.97,35.74,2.68,36.36-3.21.49-4.71-19.19-18.52-38.76-22.54-24.71-5.07-49.32,1.27-48.72,6.1.07.6.29,1.21.64,1.82-1.61-2.49-4.45-5.07-5.15-5.9-.92-1.09-2.82-3.84-3.77-4.92-2.19-2.5-3.58-4.22-6.85-5.67-2.85-1.27-6.56-1.25-9.66-.79-3.09.46-5.67,1.15-8.85,1.43-4.37.38-8.8-.23-13.29-.33-.97-.02-2.26.07-3.13.28-.87.21-1.52.66-1.68,1.26-.17.67.18,1.6.76,2.23,2.87,3.11,6.21,5.59,10.78,7.69,2.49,1.14,8.12,3.34,9.79,4.04-.05.56-.18,1.25-.35,1.8-.62-.38-1.26-.77-1.9-1.15-1.65-.98-4.6-2.14-7.19-2.77-4.76-1.15-9.56-1.5-14.34-1.18-2.56.17-11.63,1.69-15.13,2.91-1.68.59-2.82,1.59-2.32,2.76.39.91,1.58,1.7,2.82,2.26,5.24,2.35,11.27,3.59,17.18,4.84-.75,2.06-3.65,3.5-4.03,5.63-.23,1.31.55,2.7,1.75,3.89s2.79,2.1,4.36,3.11l-5.4-1.28c-.83-1.43-2.86-2.25-4.78-3.2-1.92-.95-3.97-1.95-4.96-3.35-.56-.79-.73-1.67-.48-2.46,1.28.23,2.46.45,3.76.59.87.09,1.21-.46.77-.89-1.08-1.09-1.26-2.43-2.41-3.5-.16-.15-.36-.29-.6-.39-.81-.35-1.76-.32-2.52-.13-.58.15-1.26.51-1.71.78-.7.41-1.6.61-2.53.81-.93.19-1.15.53-.5.98.28.19,2.6,1.07,3.55,1.28-.74,1.12-.61,2.62.23,3.84.84,1.22,2.01,2.02,3.56,2.95.45.27,1.17.6,1.41.95l-29.1-6.93c1.82-.27,4.31-.69,6.11-1.55,1.8-.86,1.89-3.59,1.46-5.11,2.3.74,5.04,1.09,6.77,1.2,1.29.09,1.08-.47.96-.85-.15-.49-.71-1.29-1.47-2.2-.94-1.13-.85-2.09-1.52-2.66-.67-.57-1.46-1.58-3.48-1.82-2.02-.24-3.38.5-5.08,1.2-1.7.7-3.13,1.43-5.12,1.95s-.19,1.18.86,1.36c1.06.17,2.68.45,4.72.79.39,2.72-1.7,5.14-4.96,5.02-2.24-.08-6.06-.51-6.98-.59s-1.76-.04-2.73.78l-5.94-1.42c2.45-1.08,3.59-1.79,4.57-2.67.86-.77,1.29-1.61,1.3-2.42,1.23.3,2.6.64,4.4.81,1.81.17,1.48-.94,1.19-1.54-.3-.6-.67-1.08-.62-3.3.02-.9-.57-1.51-1.49-2.01-1.24-.69-3.12-.74-4.02-.63-1.15.15-1.96.63-2.82,1.33-.86.7-1.77,1.39-2.71,1.68s-.82.88-.14,1.3c.68.42,1.85,1.04,3.49,1.63-.27.61-1.04,1.42-2.17,1.94s-3.13,1.5-7.25,2.37l-11.98-2.87c4.9-.48,8.15-1.77,10.5-3.01,2.6-1.37,3.72-3.96,3.89-8,1.89.58,5.14,1.27,8.39,1.95s8.75,1.33,12.84-.04c4.09-1.37,2.57-4.77.62-6.66-1.92-1.86-5.07-5.32-6.57-6.55-1.5-1.22-4.33-5.83-7.05-7.91-2.87-2.19-9.11-2.66-12.9-1.36-3.37,1.16-8.06,1.95-9.87,2.21s-6.97.99-10.63,2.63c-3.54,1.59-2.34,5.12.62,7.17,1.93,1.34,8.92,3.72,12.45,4.71-.42,1.88-1.82,3.95-5.9,5.31-4.81,1.61-6.89,1.79-8.68,2.33-1.31.39-4.25,1.26-6.16,2.81l-4.46-1.07c2.87-2.48,4.16-4.79,4.55-5.97,1.15.38,3.52,1.11,5.72,1.47,2.16.36,2.54-.88,2.68-1.54.14-.66.26-1.84.37-3.56.11-1.72-.81-3.59-3.23-4.56-2.75-1.11-6.09-1.09-8.58-.9-2.13.16-4.75,1.08-6.74,1.79s-1.12,1.8-.26,2.51c.85.71,3.23,1.97,4.88,2.72-1.03,1.7-5.52,4.47-8.7,5.81l-4.67-1.12c-.5-.88-1.96-3.15-2.53-4.21-2.05-3.79,1.14-5.65,2.59-7.13,1.44-1.48,4.99-3.47,7.48-4.8,1.38.65,3.4,1.95,7.37,2.96,3.97,1.01,5.97-.36,6.57-1.51.53-1.02,1.03-2.6.69-4.76-.44-2.78-3.77-5.4-8.44-6.18-4.66-.78-10.53.06-14.44.97-2.7.63-1.75,2.6-.39,3.67,1.36,1.07,3.11,2.1,4.59,2.88-2.97,1.06-6.88,2.91-9.14,4.8-2.37,1.98-3.4,4.09-3.86,4.94-.47.85-1.83,3.81,1.18,6.37l-5.11-1.22c.61-.54,1.18-.92,2.55-4.26,1.37-3.34,1.64-6.64,1.06-11.32-.52-4.16,1.3-7.35,2.87-10.61,17.11,2.38,31.09,1.62,31.71-4.28.49-4.71-16.47-17.9-33.45-21.32-21.45-4.32-42.97,2.72-42.52,7.53.06.61.25,1.22.55,1.84-1.35-2.46-3.82-4.96-4.43-5.77-.78-1.06-2.41-3.75-3.22-4.79-1.88-2.42-3.06-4.1-5.89-5.45-2.46-1.18-5.7-1.05-8.4-.5-2.7.55-4.95,1.32-7.72,1.69-3.81.51-7.66.03-11.57.06-.85,0-1.97.14-2.73.37-.76.23-1.34.7-1.48,1.31-.16.67.13,1.59.63,2.2,2.46,3.02,5.33,5.39,9.29,7.35,2.15,1.06,7.03,3.09,8.47,3.74-.05.56-.18,1.25-.33,1.8-.54-.36-1.08-.73-1.64-1.09-1.42-.93-3.97-2-6.23-2.55-4.13-1-8.3-1.21-12.48-.76-2.23.24-10.15,2.02-13.21,3.35-1.48.64-2.48,1.67-2.06,2.82.32.9,1.35,1.65,2.42,2.17,4.53,2.19,9.77,3.24,14.9,4.31-.68,2.08-3.23,3.6-3.59,5.73-.22,1.31.45,2.68,1.47,3.83s2.39,2.16,3.74,3.12l-4.69-1.09c-.7-1.4-2.44-2.34-4.1-3.23s-3.43-1.83-4.27-3.19c-.48-.77-.62-1.64-.38-2.44,1.11.2,2.13.37,3.26.47.75.07,1.06-.49.68-.91-.93-1.06-1.06-2.39-2.05-3.42-.14-.15-.31-.28-.52-.38-.7-.33-1.53-.27-2.2-.05-.51.17-1.1.55-1.5.83-.62.43-1.4.66-2.21.88-.82.22-1.01.56-.45.99.24.18,2.25.99,3.07,1.17-.66,1.14-.57,2.63.15,3.82s1.92,2.21,3.25,3.1c.39.26.8.52,1,.86L-.11,360.43l.23,139.57,472.85.28-14.21-18.28-19.42-17.41ZM58.28,373.42c.16-.78-.16-1.67-.71-2.38-.55-.71-1.3-1.33-2.05-1.95-.86-.7-1.71-1.41-2.57-2.11-1.56-1.29-3.15-2.6-4.15-4.14-1.01-1.54-1.2-3.26-.23-4.72,1.94.38,3.69.7,5.4.94.12,3.78,1.39,7.88,4.31,11.14,1.36,1.52,3.08,2.93,4.74,4.29l-4.74-1.08ZM78.95,378.39c1.03-.66,1.06-2.03.9-2.5-.29-.83-.55-1.46-1.23-2.34,1.24.36,2.54.59,3.67.9-.08.87-.12,1.75.03,2.63s.46,1.69,1.22,2.42l-4.59-1.11ZM106.34,369.6c-2.4,2.7-4.2,4.99-4.66,6.39-.46,1.41-.84,4.69,1.2,8.12l-1.67-.46c-.5-2.98-2.64-7.07-3-7.77-1.55-3.06-2.94-5.63-4.61-8.66-.35-.63-.66-1.25-1.01-1.88,1.87-.06,4.34-.34,5.82-1.11,2.1-1.09,1.63-2.11.65-3.32-1.85-2.27-3.75-3.99-6.6-5.64-.78-.45-1.89-.88-2.82-1.12-1.45-.36-2.97-.48-4.45-.36-.94.08-2.44.51-3.09.92-1.36.84-2.61,1.8-3.46,2.95-.85,1.15-1.29,2.51-.98,3.85.3,1.31,1.3,2.11,2.83,2.58,2.75.85,5.69,1.32,8.6,1.38,1.71,2.81,3.61,8.48,4.1,10.51.37,1.53.47,3.67.61,5.89l-6.51-1.49c-1.86-1.61-1.61-4.45-1.47-5.29.94.07,3.09.56,4.06.73,1.33.23,2.1-.6,1.32-1.65-.3-.41-1.04-1-1.29-1.42-.74-1.24-.85-2.17-.96-2.94-.26-1.78-2.04-3.03-3.84-3.27-1.48-.2-2.9-.07-3.86.72-.65.53-.86,1.29-1.13,1.98-.28.7-.95,1.4-1.84,1.72-.2.07-.9.27-1.48.45-1.55-2.17-4-4.4-5.83-6.46-1.1-1.24-1.96-2.59-2.76-3.94-1.07-1.79-1.38-3.74-1.27-5.64s.78-3.73,1.29-5.57c6.21,1.45,13.32,1.74,15.64.6,1.41-.69.81-2.7.2-3.94-.02-.03-.03-.06-.05-.09,2.68,4.72,12.53,9.37,27.1,12.83-.45,3.24-2.41,7.69-4.8,10.39ZM269.04,423.85c.18-.77-.23-1.55-.87-2.28-.64-.73-1.52-1.38-2.38-2.02-.99-.74-1.99-1.47-2.98-2.21-1.82-1.34-3.66-2.71-4.84-4.29-1.18-1.58-1.42-3.32-.33-4.74,2.23.44,4.25.83,6.21,1.13.2,3.8,1.71,7.95,5.13,11.33,1.59,1.58,3.59,2.97,5.52,4.39l-5.46-1.3ZM292.86,429.55c1.17-.63,1.17-1.88.98-2.36-.34-.84-.65-1.49-1.45-2.39,1.43.41,2.92.67,4.23,1.03-.08.87-.11,1.75.08,2.64.18.89.57,1.59,1.45,2.34l-5.29-1.27ZM324.17,421.79c-2.71,2.63-4.75,4.86-5.26,6.26s-.88,4.59,1.52,8.11l-1.93-.45c-.62-3.01-3.15-7.16-3.56-7.87-1.83-3.12-3.46-5.75-5.43-8.85-.41-.64-.78-1.28-1.19-1.92,2.15,0,4.98-.2,6.66-.92,2.4-1.02,1.84-2.07.7-3.31-2.16-2.34-4.37-4.13-7.66-5.88-.91-.48-2.18-.95-3.26-1.22-1.67-.42-3.42-.59-5.12-.52-1.08.05-2.79.43-3.54.82-1.55.8-2.96,1.72-3.93,2.84-.96,1.12-1.44,2.47-1.07,3.83.37,1.32,1.52,2.16,3.29,2.69,3.17.95,6.55,1.52,9.91,1.68,2,2.88,4.28,8.63,4.87,10.69.44,1.55.61,3.65.8,5.88l-7.5-1.78c-2.16-1.68-1.93-4.41-1.78-5.25,1.08.1,3.55.67,4.67.87,1.53.28,2.4-.53,1.49-1.61-.35-.42-1.21-1.04-1.51-1.47-.87-1.27-1-2.2-1.15-2.99-.32-1.8-2.39-3.11-4.46-3.41-1.7-.25-3.33-.16-4.42.59-.74.51-.97,1.26-1.27,1.95-.31.69-1.07,1.37-2.08,1.66-.23.07-1.03.24-1.69.41-1.81-2.23-4.66-4.55-6.79-6.68-1.28-1.28-2.29-2.67-3.24-4.05-1.26-1.83-1.64-3.8-1.55-5.7.1-1.9.84-3.72,1.39-5.55,7.16,1.67,15.33,2.2,17.98,1.13,1.61-.65.92-2.63.2-3.89-.02-.03-.04-.07-.06-.1,3.2,4.81,14.56,9.8,31.3,13.76-.47,3.24-2.65,7.63-5.36,10.26Z"/>
  </g>
  <path id="h1-1" class="st0" d="M761.44,506.06c-5.65-.19,10.92-182.57-7.17-162-1.31-2.92,9.88-6.67.34-5.87-4.24-.44,1-4-1.72-4.8-2.49-.42,1.86-4.33-2.2-3.39-8.74-1.35,7.4-5.58.13-5.93-1.16.14-2.66-.83-2.15-1.87,5.62-4.46-4.52-.31-1.81-4,4.06-1.59,1.25-2.59-1.55-2.52-.43-.22.51-6.83-2.86-4,1.48,7.41-6.36,2.56-2.25,6.56,5.14,3-5-.25-.08,5.06-7.81-.36,1.8,3.26-1.33,5.34-5.19-.58.77,2.46-.29,4.05-14.58-3.05,4.72,6.31-5.53,5.46-1.7,1.79,5.19,2.86,1.22,4.65-9-2.33-7.62,1.55-.87,4.1-.85,3.28-7.17.63-6.46,4.61-.3-.88-1.12-1.46-2.05-1.46-3.92-1.42,2.25-2,.32-3.26-1-.12-2.49.65-3.16-.31,5-3.59-6.35-.29.94-4.3-5.75-.3,2.74-2.66-2.88-2.37-2.72-1.19,4.24-1.88-.35-2.61-2.92-1,2.21-1.74.2-2.42-.61.15-1.88-.09-1.43-.93,3.25-.82-.26-.81-.35-2,2.08-.6.08-.94-.13-1.76,2,1.08-.21-4.83-1.07-3.41-2.69,3-.16,4.58-3.16,5.23,2.16,2.44-.56,1.32-.55,2.9,1.66,1.77.5,1.65-1.13,1.66,2.07,3.55.2,2.46-1.63,3.67,3,2.68,2.38,3.16-1.1,4.15,6.38,6.85-5.28,1.52-.27,6-1.68,1.09-3.42,2.1-5.21,3-5.88-1.82,5.87-3.27-2.9-4.93,5-6.49-2.77-.61.52-6.62-1.63,0-2.78.1-1.13-1.67,0-1.57-2.69-.47-.54-2.89-2.57-.64-2.07-.48-.87-2.55-1.67-.06-1.61-1.51-2.3-2.68-1.75-1.1-2.47,5.84-1.2,5.16-3.88,2.37,2.78,2.17-2.14,2.95-.76,1.13,3.25,1.24.57,2.36-4.6.73,2.37,1.42-.35,2.62-5-.63,2.12,2.54-2.68,2.17-6-1.33,1.92-3-3.55-4.14,3.51-4.39-1.9-.75.38-4.83-1.19,0-2,.08-.82-1.21,0-1.15-2-.36-.4-2.12-1.93-.73-.68-1.93-2.31-3.82-.68-.92-2.23,3.19-.78,2.49-.17.62-1.6.83-.1,1.28-.07.86-2.61.83-.25,1.44.33.61-.6.79-1,.67-1.46.51,2.29,1.06.15,1.77-3.35.54,1.73,1-.25,1.91-3.5-.29,1.48,1.61-2.1,1.73,4.39,3.22-9.59.52,0-5.62-3.38-2.44-6.84.32-3-6.7-3,0-5.09.19-2.06-3,.24-3.13-5.17-.19-1-5.29-6.9-1.54.83-1-5.78-9.55-3.11-2.4-1.33,3.69-3.06,4.34-2.07.52-.4,2.41,1.11,1.88-.41,1.55-4,2.06-.24,3.21-.17,2.13-6.55,2.07-.63,3.59.81,1.53-1.5,2-2.62,1.68-3.67,1.25,5.71,2.65.37,4.43-8.39,1.33,4.33,2.58-.63,4.77-10.29-.54,5.25,3.78-5.27,4.33.17,2.09,4.61,1,4.49,3.25-1.86,2.78-9.73-.67-2.77,4.6-.93,2.4-7.89-1.42-6.27,2.23,3,1,4.86,3,1.14,4.22-7.71,1.52-5.08,12.81-10,18.06-5.1.06-1.56-2.95.16-4.78-2.44-1.6-4.9-.21-2.17-4.88-2.17,0-3.7.14-1.5-2.21,0-2.09-3.58-.63-.72-3.85-3.42-.85-2.75-.63-1.15-3.39-2.23-.08-2.15-2-3.06-3.56-2.27-1.75-1,2.68-2.23,3.16-1.51.38-.29,1.76.81,1.36-.3,1.13-2.92,1.51-.18,2.34-.12,1.55-4.77,1.51-.45,2.62.59,1.12-1.1,1.43-1.92,1.22-2.66.91,4.16,1.93.28,3.22-6.11,1,3.15,1.89-.46,3.48-7.48-.39,3.8,2.75-3.84,3.15,7.29,4.68.73,1.27-.63,4.23,4.63,2.76-1.08,1.54-2.84,2.22,7.79-7.19-4.17-1,.78-8.7-2.34,0-4,.15-1.62-2.39.19-2.45-4-.15-.78-4.14-7-1.38,1.23-2.62-2-3.9-1.94.3-2.84-7.35-4.22-2.47.76,1.91-3.55,3.76.17,3.75-.31,1.22-3.14,1.62-.18,2.52-.14,1.67-5.14,1.62-.5,2.82.64,1.2-1.18,1.54-2,1.32-2.88,1,4.48,2.07.29,3.47-6.58,1.05,3.4,2-.5,3.74-8-.42,4.11,3-4.13,3.4,10.59,6.3-6,.57,1.35,6.15-1,1.38-3.16.27-4.52.45-.43,4.06,7.08,2.38-3.37,6.12-5.71.48,4.63-4.45-1.52-3.51-1.79-.23-.1-1-1.27-3.68-.94-2.47-5.06-.15.31-3.89-2.34-.85-2.73-.16-1.62-2.67-.67-.09-2.75.44-1.75-.92,2.27-.89.7-1.45-.86-1.41-.24-.12.29-3.81-1.6-2.22.94,3.52-3.33,1.82-1.26,3.67,2.87,1.65-2.79-.14,0,2.82-4.35-.19,1,1.83-.75,3-2.89-.32.44,1.37-.16,2.26-7.36-1.67,2.25,3.67-3.09,3.05-1,1,2.9,1.6.69,2.6-4.72-1.34-4.13,1-.49,2.29-.37,1.72-5.23.65-3.18,3-2.82,1-8,1.39-4.29-2.77-4.08-.65-3.25-8.88-5.66-.42-1.62.4-.31,1.87.86,1.45-.32,1.21-3.13,1.61-.19,2.5-.13,1.67-5.1,1.62-.49,2.8.64,1.2-1.17,1.53-2,1.31-2.86,1,4.45,2.07.29,3.45-6.53,1,3.38,2-.49,3.72-8-.42,4.07,2.94-4.1,3.37,10.51,6.26-5.95.57,1.33,6.12-.94,1.36-3.14.26-4.49.44-2.75,1.84,6,2.62.45,4.63-1.57-.22-3.88,1.83-2,3.35-1.09,1.23-5.42,2.3-1.85.15-3.17-1.23-1.57-.8-.8-2.52-4.17-.05,1.54-1.41-1.15-1.88-2-.81,1.57-.63-.8-2.15,2.22,0-.35-1.1.1-2.25-.83-2.92-1.36,1.66-2.52,1.48-1.87.82,3.06,1.7-1.21,2.34,1.85,2.09-.48,1.12-.47,2.48,1.42,1.51.43,1.41-1,1.42,1.66,2.64.09,2.26-1.4,3.15,2.57,2.29,2,2.7-.94,3.56,6.39,5.32-13.47,7.73-3.13-.78-2.84-1.86-5.71-.24-2.53-5.68-2.53,0-4.3.16-1.74-2.58.2-2.64-4.38-.16-.85-4.48-5.53-1,.39-1.54-4.9-8.09-2.63-2-1.13,3.12-2.59,3.68-1.75.44-.34,2,.94,1.59-.34,1.31-3.4,1.75-.2,2.72-.15,1.8-5.56,1.75-.54,3,.69,1.3-1.27,1.67-2.22,1.43-3.11,1.06,4.84,2.24.32,3.75-7.11,1.13,3.67,2.19-.54,4.05-8.7-.46,4.44,3.19-4.46,3.66.14,1.77,3.9.84,3.8,2.76-11.08,2.45,4.62,4.82-7.23,4.38-3,2,6.48,3,.54,5-19.56,16.4-40,40.41-67.65,39.92-255.7,37.68,302.96,17.74,301.34,22.33ZM690.05,348.19c1.82-1.17,4.91,2.33.87,1.59-.56-.34-1.77-.92-.87-1.59ZM678.54,347.77c1.22-.95.69.18-.18.42-.43.08-.07-.19.18-.42ZM623.81,378.06c.47.34,1,.58,1.56.73-.68.14-1.97-.79-1.56-.73Z"/>
</svg>