<?xml version="1.0" encoding="UTF-8"?>
<svg id="Layer_1" data-name="Layer 1" xmlns="http://www.w3.org/2000/svg" viewBox="0 0 1409.72 493.92">
  <defs>
    <style>
      .cls-1 {
        fill: none;
      }

      .cls-2 {
        fill: #fff;
      }
    </style>
  </defs>
  <polygon class="cls-1" points="1409.72 409.92 0 155.49 0 493.92 1409.72 493.92 1409.72 409.92"/>
  <g>
    <g>
      <path class="cls-2" d="M95.32,172.69c-2.52-5.43-7.99-8.54-13.21-11.47s-10.77-6.03-13.71-11.25c-1.66-2.96-2.34-6.47-1.9-9.83,3.38.32,6.47.61,9.86.53,2.26-.05,2.99-2.47,1.75-4.04-3.1-3.94-3.9-9.35-7.17-13.14-.46-.54-1.01-1.01-1.65-1.32-2.19-1.05-4.62-.44-6.55.74-1.47.9-3.11,2.72-4.21,4.05-1.7,2.05-3.96,3.3-6.31,4.56-2.36,1.26-2.82,2.72-1.02,4.25.77.65,6.99,3.1,9.51,3.47-1.61,4.96-.87,11.03,1.64,15.61s6.4,8.26,10.64,11.31c1.23.88,2.54,1.78,3.26,3.11l19.08,3.44Z"/>
      <path class="cls-2" d="M301.96,209.99c-7.15-13.2-7.06-26.85-6.12-32.82.93-5.97,5.59-16.15,11.87-28.26s10.71-31.2,11.05-44.71c-51.2-9.14-84.26-27.45-87.47-49.54-2.84-19.52,58.99-57.73,124.15-49.24,51.62,6.72,106.21,53.54,106.21,73.07,0,24.46-41.35,33.63-93,31.24-3.65,14.04-8.05,27.91-5.22,44.77,3.19,18.96,3.42,32.6.4,46.92-3.03,14.32-4.61,16.14-6.26,18.61l-55.6-10.04Z"/>
      <path class="cls-2" d="M228.97,196.8c2.86-3.15,2.52-8.79,1.88-10.65-1.11-3.27-2.03-5.7-4.33-8.99l-6.06-8.06c-5.29-8.22-13.27-16.33-19.35-23.99-3.67-4.62-6.64-9.8-9.45-14.98-3.74-6.87-5.27-14.77-5.54-22.59s1.15-15.66,2.09-23.43c18.93,3.27,40.17,1.39,46.74-4.3,3.99-3.46,2.29-11.07.08-15.86-4.63-10.06-14.33-20.53-16.5-23.78-2.67-4-8.34-14.34-11.08-18.29-6.34-9.13-10.39-15.49-19.22-19.82-7.7-3.77-17.29-1.86-25.15,1.56-7.86,3.42-14.33,7.54-22.45,10.27-11.17,3.74-22.78,3.43-34.41,5.26-2.51.39-5.81,1.42-8.01,2.71s-3.76,3.47-4,6c-.27,2.83.89,6.45,2.57,8.75,8.26,11.32,17.55,19.83,29.93,26.15,6.74,3.44,21.87,9.65,26.36,11.7.02,2.32-.14,5.23-.41,7.53l-4.07,46.31c1.56,15.48,6.59,31.73,16.31,43.87,4.54,5.66,10.07,10.71,15.46,15.57l48.6,9.07Z"/>
      <path class="cls-2" d="M165.91,185.35c.25-3.26-1.01-6.78-2.86-9.47s-4.29-4.91-6.71-7.11c-2.77-2.52-5.53-5.04-8.3-7.56-5.05-4.6-10.18-9.3-13.65-15.19s-4.58-12.89-2.15-19.27c14.25,1.71,25.12,2.74,38.71-.11,3.95-.83,8.11-3.32,10.03-6.88,1.71-3.17,1.35-7.14-.12-10.43s-3.92-6.02-6.42-8.62c-8.23-8.59-17.28-15.63-27-22.49-4.52-3.19-12.45-6.5-19.33-7.78-12.6-2.34-25.08-1.39-37.36,2.28-6.55,1.96-29.58,12.69-38.27,19.46-4.19,3.26-6.85,7.93-5.25,12.48,1.25,3.54,4.53,6.19,7.89,7.86,14.16,7.04,30.08,9.09,45.68,11.28-1.38,8.81-8.49,16.16-8.88,25.07-.24,5.47,2.16,10.8,5.57,15.09s7.78,7.83,12.1,11.2l56.3,10.19Z"/>
      <path class="cls-2" d="M242.96,199.38c-2.47-2.63-3.66-5.85-4.37-9.39s-.89-7.16-.92-10.77c-5.93-1.39-13.33-1.66-18.73-5.29-1.57-1.05-1.5-2.79-.49-3.52,1.32-.95,5.41-3.22,6.27-3.8,2.53-1.69,4.33-4.87,4.93-7.86s.98-6.16,2.76-8.63c2.6-3.63,6.78-4.8,11.25-4.61,5.43.22,11.12,4.56,12.44,11.77.58,3.14,1.18,6.88,3.77,11.67.88,1.62,3.26,3.75,4.29,5.29,2.67,3.98.63,7.71-3.4,7.34-2.95-.27-9.49-1.39-12.3-1.25-.18,3.53,0,15.29,6.01,21.09l-11.51-2.03Z"/>
      <path class="cls-2" d="M274.31,204.74c-1.1-9.04-2.09-17.77-3.66-23.9-2.08-8.13-9.53-30.57-15.48-41.38-8.7,1.02-17.59.34-26.03-1.97-4.72-1.29-7.94-4.15-9.24-9.38-1.34-5.37-.46-11.13,1.72-16.22s5.59-9.56,9.37-13.61c1.82-1.95,6.12-4.38,8.91-5.11,4.36-1.14,8.93-1.3,13.35-.43,2.85.56,6.26,1.85,8.74,3.38,8.98,5.52,15.17,11.77,21.39,20.29,3.3,4.53,5.01,8.52-.9,13.91-4.15,3.78-11.42,6.03-16.96,7.06,1.23,2.43,2.36,4.87,3.59,7.3,5.92,11.72,10.85,21.69,16.43,33.58,1.27,2.71,8.92,18.55,11.34,30.58l-22.55-4.1Z"/>
      <path class="cls-2" d="M373.14,222.83c-9.75-9.21-6.62-21.93-5.5-25.63s3.53-12.79,9.95-21.94,17.18-18.03,25.69-23.65c-4.66-2.57-10.16-6.02-14.55-9.83s-7.84-11.49,0-15.24c11.34-5.43,28.54-11.42,42.66-10.22s24.87,10.51,27.04,21.73c1.69,8.72.69,15.43-.58,19.84-1.43,4.96-6.95,11.46-19.07,9.02s-18.53-6.92-22.85-8.98c-6.99,6.53-16.93,16.23-20.76,22.94-3.83,6.71-12.74,15.69-5.47,30.39,2.02,4.08,7.08,12.78,8.85,16.17l-25.42-4.59Z"/>
      <path class="cls-2" d="M412.79,229.99c9.05-6.87,21.54-20.21,24.08-27.61-5.12-2.36-12.6-6.5-15.36-9.06s-5.71-6.7,0-10.44,13.19-8.66,19.5-10.24c7.34-1.83,17.28-3.36,25.8,0,7.48,2.95,10.83,10.24,11.03,17.33s.2,12.01,0,14.77-.93,8.01-7.48,7.48-13.93-2.53-17.48-3.58c-.78,5.01-3.89,15.07-11.66,26.47l-28.41-5.13Z"/>
      <path class="cls-2" d="M454.8,237.57c5.19-7.15,13.68-12,17.45-14.18,5.16-2.98,11.28-4.63,25.1-13.3,11.73-7.36,15.24-16.45,15.9-24.35-10.82-2.53-32.34-9.3-38.51-13.96-9.45-7.13-14.13-21.12-4.09-29.16,10.36-8.29,25.5-13.53,30.79-15.37s19.01-7.1,28.68-13.32c10.89-7,29.61-7.76,38.82,0s18.61,25.06,23.45,29.43,15.28,17.23,21.58,24.04,11.99,20.23.25,27.6-28.28,7.08-38.18,5.7-19.77-2.81-25.58-4.37c.76,16.66-1.77,27.77-9.08,34.52-6.59,6.09-15.87,12.81-30.29,16.88l-56.3-10.16Z"/>
      <path class="cls-2" d="M566.78,257.78c6.95-5.49,10.14-8.88,12.76-12.92,2.3-3.55,3.33-7.15,3.1-10.49,3.77.72,7.94,1.5,13.34,1.43s4.12-4.48,3.05-6.82-2.34-4.14-2.87-13.27c-.21-3.69-2.17-5.94-5.06-7.63-3.92-2.28-9.53-1.7-12.15-.84-3.37,1.1-5.64,3.45-7.97,6.67s-4.84,6.46-7.53,8.07-2.15,3.95,0,5.38,5.83,3.48,10.9,5.18c-.61,2.61-2.66,6.29-5.85,8.91s-8.84,7.5-20.84,12.86l19.12,3.45Z"/>
      <path class="cls-2" d="M584.89,261.05c2.63-3.8,5.13-4.29,7.88-4.38s14.25.05,20.94-.58c9.72-.92,15.18-11.76,13.18-22.76-6.18-.52-11.11-.94-14.3-1.19s-8.76-2.21-2.99-5.2,9.79-6.59,14.63-10.2,8.65-7.21,14.73-7.11,8.76,3.91,10.92,5.98,2.2,6.03,5.34,10.27c2.54,3.43,4.45,6.47,5.05,8.4.48,1.54,1.3,3.71-2.58,3.91-5.2.28-13.47.01-20.53-2.02,1.75,6.06,2.33,17.28-2.76,21.6s-12.39,7.11-17.71,9.01l-31.81-5.74Z"/>
    </g>
    <g>
      <path class="cls-2" d="M727.43,286.78c-2.91-5.5-9.21-8.01-15.22-11.07s-12.41-6.3-15.79-11.6c-1.92-3-2.7-6.53-2.19-9.88,3.89.41,7.45.78,11.36.78,2.61,0,3.45-2.39,2.02-4-3.57-4.02-4.5-9.44-8.26-13.33-.54-.55-1.17-1.04-1.91-1.36-2.52-1.11-5.33-.56-7.55.57-1.69.86-3.58,2.64-4.85,3.94-1.96,2-4.56,3.2-7.27,4.39-2.72,1.2-3.25,2.65-1.18,4.22.89.67,8.06,3.28,10.96,3.71-1.86,4.92-1,11.01,1.89,15.65s6.62,7.43,11.51,10.58c1.42.91,3.67,1.96,4.51,3.31l21.99,4.07Z"/>
      <path class="cls-2" d="M965.55,329.73c-8.24-13.38-8.13-26.67-7.06-32.62,1.07-5.95,6.44-16.01,13.68-27.95s12.34-30.93,12.73-44.43c-59-10.45-97.09-29.6-100.8-51.78-3.27-19.59,67.97-56.22,143.07-46.08,59.48,8.04,122.38,56.25,122.38,75.78,0,24.46-47.65,32.58-107.17,28.86-4.21,13.95-9.28,27.71-6.01,44.64,3.68,19.04,3.95,32.68.46,46.93s-5.31,15.78-7.22,18.21l-64.07-11.57Z"/>
      <path class="cls-2" d="M881.44,314.55c3.29-3.08,2.9-8.24,2.17-10.11-1.28-3.3-2.34-5.75-4.99-9.1l-6.98-8.21c-6.09-8.36-15.29-16.67-22.29-24.48-4.22-4.71-7.65-9.97-10.89-15.22-4.31-6.97-6.07-14.91-6.38-22.73-.31-7.83,1.32-15.63,2.4-23.37,21.81,3.75,46.29,2.41,53.85-3.11,4.6-3.36,2.64-11.01.09-15.86-5.34-10.18-16.51-20.89-19.01-24.2-3.07-4.07-9.61-14.56-12.77-18.57-7.31-9.3-11.97-15.76-22.15-20.31-8.87-3.97-19.92-2.3-28.98.92-9.06,3.22-16.51,7.18-25.88,9.69-12.87,3.46-26.24,2.85-39.66,4.38-2.9.33-6.7,1.27-9.23,2.5s-4.33,3.37-4.61,5.9c-.31,2.82,1.03,6.47,2.96,8.81,9.52,11.53,20.23,20.28,34.49,26.91,7.77,3.61,25.21,10.21,30.38,12.37.02,2.32-.16,5.22-.47,7.52l-4.69,46.21c1.79,15.52,7.59,31.9,18.79,44.29,5.23,5.78,11.6,10.66,17.81,15.65l56.01,10.13Z"/>
      <path class="cls-2" d="M808.78,301.43c.29-3.25-1.16-6.26-3.3-8.99s-4.95-5.02-7.73-7.28c-3.19-2.59-6.37-5.18-9.56-7.77-5.82-4.73-11.73-9.56-15.73-15.53-4-5.97-5.28-13-2.48-19.33,16.42,2.07,28.95,3.39,44.6.88,4.56-.73,9.35-3.11,11.56-6.62,1.97-3.13,1.56-7.11-.14-10.43-1.69-3.33-4.52-6.12-7.39-8.79-9.48-8.8-19.91-16.07-31.11-23.18-5.21-3.31-14.35-6.81-22.27-8.27-14.51-2.66-28.9-2.03-43.05,1.32-7.55,1.79-34.08,11.94-44.1,18.48-4.83,3.16-7.89,7.76-6.05,12.34,1.44,3.57,5.22,6.3,9.1,8.06,16.31,7.4,34.66,9.86,52.64,12.44-1.6,8.78-9.78,15.94-10.23,24.84-.28,5.47,2.49,10.85,6.42,15.23s8.96,7.4,13.94,10.88l64.87,11.71Z"/>
      <path class="cls-2" d="M897.56,317.47c-2.85-2.7-4.21-5.43-5.04-8.99-.83-3.56-1.03-7.18-1.06-10.8-6.83-1.54-15.36-2-21.58-5.77-1.8-1.09-1.72-2.83-.57-3.53,1.52-.92,6.23-3.08,7.23-3.64,2.92-1.63,4.98-4.76,5.68-7.73s1.13-6.13,3.18-8.56c3-3.57,7.82-4.62,12.96-4.33,6.26.36,12.82,4.85,14.34,12.08.66,3.16,1.36,6.91,4.34,11.76,1.01,1.65,3.76,3.84,4.94,5.4,3.07,4.05.73,7.73-3.91,7.26-3.39-.34-10.94-1.63-14.18-1.57-.2,3.53,0,14.85,6.93,20.8l-13.26-2.39Z"/>
      <path class="cls-2" d="M933.69,323.93c-1.27-9.06-2.41-17.62-4.21-23.79-2.39-8.19-10.98-30.81-17.84-41.78-10.02.79-20.27-.11-30-2.63-5.43-1.41-9.14-4.35-10.64-9.61-1.54-5.4-.53-11.14,1.98-16.18,2.51-5.03,6.44-9.42,10.79-13.37,2.1-1.9,7.06-4.23,10.27-4.88,5.03-1.02,10.29-1.08,15.38-.09,3.29.64,7.22,2.01,10.07,3.6,10.35,5.75,17.48,12.16,24.64,20.84,3.81,4.61,5.77,8.65-1.04,13.88-4.78,3.67-13.15,5.74-19.54,6.63,1.42,2.46,2.72,4.93,4.13,7.39,6.83,11.87,12.5,21.97,18.93,33.99,1.46,2.74,10.28,18.67,13.07,30.76l-25.98-4.76Z"/>
      <path class="cls-2" d="M1047.57,344.5c-11.24-9.46-7.63-21.86-6.34-25.52,1.3-3.66,4.07-12.7,11.47-21.69,7.05-8.57,19.8-17.6,29.6-23-5.37-2.69-11.71-6.28-16.77-10.2-5.06-3.93-9.04-11.69,0-15.24,13.07-5.14,32.89-10.69,49.16-9.13,16.27,1.56,28.66,11.14,31.16,22.42,1.95,8.77.8,15.45-.66,19.82-1.65,4.92-8.01,11.28-21.97,8.53s-21.36-7.39-26.34-9.57c-8.05,6.35-19.51,15.8-23.93,22.41s-14.68,15.37-6.3,30.25c2.33,4.13,8.16,12.73,10.2,16.17l-29.29-5.26Z"/>
      <path class="cls-2" d="M1093.27,352.81c10.43-6.63,24.82-19.55,27.75-26.89-5.9-2.49-14.52-6.82-17.7-9.45-3.18-2.63-6.58-6.84,0-10.44s15.2-8.33,22.47-9.74c8.45-1.65,19.91-2.92,29.73.66,8.62,3.14,12.48,10.52,12.71,17.61.23,7.09.23,12.02,0,14.77s-1.07,7.99-8.62,7.29-16.05-2.89-20.14-4.03c-.9,4.99-4.49,14.9-13.44,26.11l-32.74-5.9Z"/>
      <path class="cls-2" d="M1141.68,361.46c5.98-7.02,15.76-11.53,20.11-13.61,5.95-2.85,12.99-4.35,28.92-12.66,13.52-7.06,17.56-16.06,18.33-23.94-12.47-2.81-37.26-10.12-44.38-14.94-10.89-7.37-16.28-21.48-4.71-29.26,11.94-8.02,29.38-12.87,35.49-14.58s21.91-6.61,33.05-12.58c12.55-6.72,34.12-7,44.73.99,10.08,7.59,21.45,25.53,27.02,30.03s17.6,17.62,24.87,24.59c7.37,7.07,13.82,20.54.29,27.6-13.53,7.07-32.59,6.36-44,4.72-11.41-1.63-22.78-3.32-29.47-5.03.88,16.68-2.04,27.72-10.47,34.29-7.6,5.92-18.29,12.4-34.9,16.1l-64.88-11.71Z"/>
      <path class="cls-2" d="M1270.71,384.69c8.01-5.31,11.68-8.67,14.7-12.64,2.66-3.49,3.83-7.06,3.57-10.42,4.34.81,9.15,1.7,15.37,1.78s4.75-4.38,3.51-6.74c-1.24-2.36-2.7-4.2-3.31-13.34-.24-3.69-2.5-6-5.83-7.76-4.51-2.38-10.98-1.94-14-1.15-3.88,1.02-6.49,3.3-9.18,6.47s-5.58,6.33-8.68,7.88c-3.1,1.55-2.48,3.89,0,5.38,2.48,1.49,6.72,3.63,12.56,5.46-.7,2.59-3.07,6.22-6.74,8.76s-10.19,7.27-24.01,12.33l22.03,3.99Z"/>
      <path class="cls-2" d="M1291.58,388.37c3.03-3.73,5.91-4.16,9.08-4.17s16.42.42,24.13-.05c11.2-.68,17.5-11.38,15.18-22.43-7.12-.67-12.8-1.22-16.48-1.56s-10.09-2.43-3.44-5.27c6.65-2.84,11.28-6.34,16.86-9.83,5.58-3.48,9.97-6.99,16.98-6.73s10.09,4.14,12.58,6.25c2.49,2.12,2.54,6.09,6.16,10.41,2.92,3.49,5.12,6.58,5.82,8.53.55,1.55,1.5,3.74-2.97,3.85-5.99.14-15.52-.33-23.66-2.54,2.01,6.1,2.68,17.34-3.18,21.53s-14.27,7.06-20.4,8.82l-36.65-6.81Z"/>
    </g>
  </g>
</svg>