<?xml version="1.0" encoding="UTF-8"?>
<svg id="Layer_1" data-name="Layer 1" xmlns="http://www.w3.org/2000/svg" viewBox="0 0 471.19 170.95">
  <defs>
    <style>
      .cls-1 {
        fill: none;
      }
    </style>
  </defs>
  <path class="cls-1" d="M443.95,136.78c2.05-.61,4.86-1.6,6.82-3.05s1.74-5.34,1.06-7.45c2.72.76,5.91.93,7.91.88,1.49-.04,1.18-.8.99-1.33-.23-.67-.97-1.75-1.94-2.95-1.21-1.5-1.22-2.87-2.06-3.6-.83-.73-1.86-2.08-4.21-2.16-2.34-.09-3.81,1.12-5.67,2.33s-3.41,2.42-5.63,3.4c-2.22.98-.08,1.71,1.15,1.82,1.23.12,3.13.31,5.51.54.77,3.83-1.33,7.53-5.08,7.76-2.58.16-7.01.01-8.07.02-1.06,0-2.02.15-3.03,1.44l-6.98-1.27c2.68-1.84,3.9-3,4.91-4.37.89-1.21,1.28-2.44,1.19-3.6,1.45.28,3.06.59,5.14.61,2.09.02,1.59-1.52,1.17-2.33-.41-.82-.9-1.45-1.11-4.62-.08-1.28-.83-2.08-1.95-2.68-1.51-.82-3.67-.67-4.68-.4-1.3.35-2.17,1.14-3.07,2.24-.9,1.1-1.87,2.19-2.9,2.73-1.04.53-.83,1.35,0,1.86.83.52,2.25,1.26,4.2,1.89-.24.9-1.03,2.15-2.25,3.03-1.23.88-3.41,2.52-8.03,4.27l-14.08-2.61c5.55-1.28,9.13-3.53,11.67-5.57,2.82-2.27,3.79-6.09,3.5-11.87,2.24.59,6.04,1.17,9.85,1.74,3.81.57,10.18.81,14.71-1.63s2.37-7.11-.1-9.55c-2.43-2.41-6.45-6.95-8.31-8.51-1.86-1.56-5.66-7.77-9.03-10.39-3.55-2.77-10.76-2.67-14.95-.34-3.72,2.07-9.01,3.76-11.05,4.36-2.04.59-7.87,2.27-11.86,5.05-3.87,2.69-2.07,7.58,1.57,10.13,2.38,1.67,10.66,4.2,14.83,5.17-.26,2.73-1.61,5.84-6.13,8.29-5.32,2.88-7.68,3.4-9.67,4.38-1.45.72-4.72,2.28-6.72,4.71l-5.24-.95c2.99-3.88,4.19-7.31,4.49-9.04,1.37.39,4.17,1.15,6.73,1.39,2.52.24,2.81-1.57,2.88-2.52.08-.95.08-2.66,0-5.11-.08-2.46-1.37-5.01-4.25-6.1-3.28-1.24-7.11-.8-9.94-.23-2.43.49-5.31,2.13-7.51,3.37-2.2,1.24-1.06,2.7,0,3.61,1.06.91,3.94,2.41,5.92,3.27-.98,2.54-5.79,7.01-9.27,9.31l-5.48-1.05c-.68-1.19-2.63-4.17-3.41-5.6-2.8-5.15.63-8.18,2.11-10.47,1.48-2.29,5.31-5.56,8-7.76,1.66.75,4.14,2.36,8.8,3.31,4.67.95,6.79-1.25,7.34-2.95.49-1.51.87-3.83.22-6.86-.84-3.9-4.98-7.22-10.41-7.76-5.44-.54-12.06,1.38-16.43,3.16-3.02,1.23-1.69,3.92,0,5.28,1.69,1.36,3.81,2.6,5.61,3.53-3.28,1.87-7.54,5-9.89,7.96-2.47,3.11-3.4,6.24-3.83,7.51-.43,1.27-1.64,5.56,2.12,8.83l-6-1.11c.64-.84,1.25-1.37,2.41-6.3,1.17-4.93,1.08-9.65-.15-16.24-1.09-5.86.6-10.62,2.01-15.45,19.89,1.29,35.82-1.52,35.82-9.99,0-6.76-21.02-23.45-40.91-26.23-25.1-3.51-48.91,9.17-47.82,15.95.14.84.42,1.67.83,2.49-1.86-3.3-4.96-6.54-5.74-7.61-1.03-1.41-3.21-5.04-4.27-6.43-2.44-3.22-4-5.45-7.4-7.03-2.96-1.37-6.66-.8-9.69.32s-5.52,2.48-8.65,3.35c-4.3,1.2-8.77.99-13.26,1.52-.97.11-2.24.44-3.08.87-.85.43-1.45,1.17-1.54,2.04-.1.98.34,2.24.99,3.05,3.18,3.99,6.76,7.02,11.53,9.31,2.6,1.25,8.42,3.53,10.15,4.28,0,.8-.05,1.81-.16,2.6-.66-.45-1.33-.9-2.01-1.34-1.74-1.14-4.79-2.36-7.44-2.86-4.85-.92-9.66-.7-14.39.46-2.52.62-11.39,4.13-14.74,6.4-1.61,1.09-2.64,2.68-2.02,4.27.48,1.24,1.75,2.18,3.04,2.79,5.45,2.56,11.59,3.41,17.6,4.31-.53,3.04-3.27,5.52-3.42,8.6-.09,1.89.83,3.76,2.15,5.27s2.99,2.56,4.66,3.76l-5.51-1.02c-.97-1.9-3.08-2.77-5.09-3.83-2.01-1.06-4.15-2.18-5.28-4.01-.64-1.04-.9-2.26-.73-3.42,1.3.14,2.49.27,3.8.27.87,0,1.15-.83.67-1.38-1.19-1.39-1.5-3.27-2.76-4.61-.18-.19-.39-.36-.64-.47-.84-.38-1.78-.19-2.52.2-.57.3-1.2.91-1.62,1.36-.65.69-1.52,1.11-2.43,1.52-.91.41-1.09.92-.39,1.46.3.23,2.69,1.14,3.66,1.28-.62,1.7-.33,3.81.63,5.42.96,1.61,2.21,2.57,3.85,3.66.47.32,1.23.68,1.51,1.15l-29.66-5.51c1.78-.66,4.22-1.62,5.92-3.12,1.7-1.49,1.51-5.38.92-7.48,2.36.7,5.12.79,6.86.7,1.3-.07,1.02-.82.86-1.36-.2-.67-.84-1.72-1.69-2.91-1.05-1.47-1.06-2.84-1.79-3.56-.72-.71-1.62-2.03-3.65-2.07-2.03-.04-3.31,1.21-4.92,2.46-1.62,1.25-2.96,2.5-4.89,3.53s-.07,1.71,1,1.8c1.07.09,2.72.23,4.78.41.67,3.81-1.16,7.56-4.4,7.88-2.24.22-6.08.17-7,.2s-1.75.2-2.63,1.51l-6.05-1.13c2.32-1.9,3.39-3.07,4.26-4.47.77-1.23,1.11-2.47,1.03-3.63,1.26.25,2.65.52,4.46.5,1.81-.02,1.38-1.55,1.02-2.36-.36-.81-.78-1.43-.96-4.59-.07-1.28-.72-2.06-1.69-2.64-1.31-.79-3.18-.59-4.06-.29-1.13.38-1.88,1.19-2.66,2.31-.78,1.12-1.62,2.23-2.52,2.79s-.72,1.37,0,1.86c.72.5,1.95,1.2,3.64,1.79-.2.9-.89,2.18-1.95,3.08s-2.96,2.6-6.96,4.45l-12.22-2.28c4.82-1.41,7.92-3.73,10.12-5.84,2.44-2.34,3.29-6.18,3.04-11.95,1.94.54,5.24,1.04,8.55,1.51s8.84.58,12.76-1.97c3.93-2.55,2.06-7.16-.08-9.55-2.11-2.36-5.6-6.81-7.21-8.32-1.62-1.51-4.91-7.64-7.84-10.19-3.08-2.69-9.34-2.42-12.98,0-3.23,2.15-7.82,3.97-9.59,4.61s-6.83,2.45-10.29,5.32c-3.36,2.78-1.79,7.62,1.37,10.09,2.06,1.61,9.26,3.95,12.87,4.83-.22,2.73-1.4,5.88-5.32,8.43-4.62,3-6.66,3.57-8.39,4.6-1.26.75-4.1,2.43-5.83,4.91l-4.54-.85c2.6-3.95,3.64-7.43,3.9-9.16,1.19.36,3.62,1.05,5.84,1.24,2.19.18,2.44-1.64,2.5-2.59.07-.95.07-2.66,0-5.11-.07-2.45-1.18-4.98-3.69-6-2.85-1.16-6.17-.63-8.62,0-2.11.55-4.61,2.25-6.52,3.54s-.92,2.73,0,3.61c.92.89,3.42,2.32,5.13,3.14-.85,2.56-5.02,7.18-8.05,9.56l-4.76-.89c-.59-1.17-2.28-4.18-2.96-5.6-2.43-5.08.55-8.2,1.83-10.52,1.28-2.32,4.6-5.68,6.94-7.94,1.44.72,3.59,2.26,7.64,3.11,4.05.85,5.9-1.4,6.37-3.12.42-1.53.76-3.85.19-6.87-.73-3.88-4.32-7.11-9.04-7.52-4.72-.42-10.47,1.66-14.26,3.54-2.62,1.3-1.47,3.96,0,5.28,1.47,1.32,3.31,2.51,4.86,3.4-2.84,1.94-6.54,5.17-8.59,8.19-2.15,3.17-2.95,6.32-3.33,7.59-.38,1.28-1.42,5.68,1.84,8.87l-5.21-.97c.55-.85,1.08-1.48,2.09-6.44,1.01-4.96.93-9.68-.13-16.24-.95-5.84.52-10.64,1.74-15.5,17.26.83,31.09-2.35,31.09-10.81,0-6.76-18.25-22.97-35.5-25.29-21.78-2.94-42.45,10.29-41.5,17.04.12.86.37,1.7.74,2.53-1.6-3.29-4.32-6.47-5.01-7.54-.89-1.38-2.79-4.96-3.7-6.33-2.12-3.16-3.47-5.36-6.42-6.86-2.57-1.3-5.78-.64-8.41.54-2.63,1.18-4.79,2.61-7.51,3.55-3.73,1.3-7.61,1.19-11.5,1.82-.84.14-1.94.49-2.68.94-.73.45-1.26,1.2-1.34,2.08-.09.98.3,2.23.86,3.03,2.76,3.92,5.87,6.86,10.01,9.05,2.25,1.19,7.31,3.34,8.81,4.05,0,.8-.05,1.81-.14,2.61-.57-.44-1.15-.87-1.74-1.3-1.51-1.1-4.16-2.25-6.46-2.69-4.21-.81-8.38-.48-12.49.79-2.19.68-9.89,4.39-12.79,6.74-1.4,1.13-2.29,2.75-1.75,4.32.42,1.23,1.51,2.14,2.64,2.72,4.73,2.44,10.05,3.15,15.27,3.9-.46,3.05-2.84,5.59-2.97,8.68-.08,1.89.72,3.74,1.86,5.22s2.6,2.71,4.04,3.87l-4.78-.85c-.84-1.88-2.67-2.96-4.42-3.97s-3.6-2.09-4.58-3.89c-.56-1.02-.78-2.24-.64-3.4,1.13.11,2.16.21,3.3.18.76-.02,1-.85.59-1.4-1.04-1.36-1.31-3.23-2.4-4.55-.16-.19-.34-.35-.55-.46-.73-.36-1.55-.15-2.19.26-.49.31-1.04.94-1.41,1.4-.57.71-1.32,1.14-2.11,1.58-.79.44-.94.94-.34,1.47.26.23,2.34,1.07,3.18,1.2-.54,1.72-.29,3.82.55,5.4s2.14,2.86,3.56,3.91c.41.31.85.62,1.09,1.08L0,53.82v117.14h471.19v-29.07l-27.24-5.1ZM55.45,64.15c.08-1.13-.34-2.35-.96-3.28-.62-.93-1.43-1.7-2.24-2.46-.92-.87-1.85-1.74-2.77-2.62-1.69-1.59-3.4-3.22-4.56-5.26-1.16-2.04-1.53-4.46-.72-6.67,1.97.24,3.74.45,5.47.53.52,5.36,2.2,10.98,5.45,15.18,1.52,1.96,3.36,3.71,5.17,5.39l-4.83-.83ZM76.53,68.12c.96-1.09.84-3.04.63-3.69-.37-1.13-.7-2-1.47-3.14,1.27.33,2.58.45,3.75.73,0,1.25.07,2.5.31,3.73s.63,2.34,1.46,3.25l-4.68-.89ZM102.85,51.54c-2.1,4.19-3.66,7.71-3.97,9.78-.31,2.07-.34,6.79,2.05,11.36l-1.71-.4c-.81-4.16-3.37-9.65-3.79-10.58-1.87-4.11-3.51-7.56-5.49-11.62-.41-.84-.79-1.68-1.2-2.53,1.85-.36,4.28-1.14,5.67-2.44,1.98-1.86,1.4-3.25.3-4.81-2.08-2.95-4.15-5.11-7.15-7.02-.83-.53-1.97-.97-2.92-1.17-1.48-.3-3-.24-4.46.15-.93.25-2.37,1.09-2.98,1.77-1.26,1.4-2.4,2.95-3.13,4.71-.73,1.76-1.02,3.76-.57,5.61.44,1.81,1.51,2.8,3.09,3.25,2.82.8,5.79,1.03,8.7.68,1.99,3.74,4.48,11.51,5.18,14.32.52,2.12.85,5.14,1.22,8.27l-6.63-1.15c-2.01-2.01-2.07-6.08-2.01-7.3.94-.05,3.13.34,4.11.43,1.35.13,2.03-1.16,1.14-2.54-.34-.53-1.14-1.27-1.43-1.83-.87-1.66-1.07-2.95-1.26-4.04-.44-2.49-2.34-4-4.16-4.07-1.49-.06-2.89.34-3.76,1.6-.59.86-.72,1.95-.92,2.99-.2,1.03-.8,2.13-1.65,2.72-.19.13-.87.52-1.42.87-1.77-2.85-4.44-5.66-6.47-8.31-1.23-1.6-2.22-3.39-3.16-5.19-1.25-2.38-1.76-5.11-1.85-7.82s.38-5.42.7-8.11c6.33,1.13,13.43.48,15.62-1.49,1.33-1.2.52-3.96-.22-5.62-.02-.04-.04-.08-.06-.13,3.16,6.31,13.44,11.44,28.29,14.19-.11,4.68-1.59,11.28-3.69,15.47ZM270.33,104.33c.1-1.12-.39-2.17-1.1-3.11-.72-.95-1.65-1.74-2.58-2.52-1.07-.9-2.13-1.79-3.2-2.69-1.95-1.64-3.92-3.31-5.26-5.38-1.34-2.07-1.76-4.5-.83-6.69,2.27.3,4.31.55,6.3.68.6,5.37,2.54,11.04,6.28,15.33,1.75,2,3.88,3.69,5.95,5.42l-5.57-1.04ZM294.61,108.87c1.1-1.07.97-2.85.73-3.5-.43-1.14-.8-2.01-1.69-3.17,1.46.36,2.98.52,4.32.83,0,1.25.08,2.51.35,3.74.28,1.23.73,2.18,1.68,3.11l-5.39-1.01ZM324.94,93.16c-2.42,4.14-4.21,7.62-4.57,9.68s-.39,6.66,2.36,11.29l-1.97-.36c-.93-4.19-3.88-9.7-4.37-10.65-2.15-4.16-4.05-7.66-6.33-11.77-.47-.85-.91-1.7-1.38-2.56,2.13-.31,4.93-1.02,6.53-2.3,2.28-1.81,1.62-3.21.35-4.81-2.39-3-4.78-5.22-8.24-7.21-.95-.55-2.27-1.03-3.37-1.25-1.7-.34-3.46-.32-5.14.03-1.07.23-2.73,1.03-3.43,1.69-1.45,1.37-2.77,2.88-3.61,4.63-.84,1.74-1.18,3.73-.66,5.6.5,1.82,1.74,2.84,3.56,3.33,3.25.87,6.68,1.19,10.03.91,2.29,3.8,5.16,11.63,5.96,14.46.6,2.13.99,5.1,1.41,8.23l-7.64-1.41c-2.32-2.06-2.38-5.98-2.32-7.2,1.08-.02,3.6.42,4.74.54,1.55.16,2.34-1.11,1.31-2.51-.4-.54-1.31-1.3-1.65-1.87-1-1.68-1.23-2.98-1.45-4.07-.51-2.5-2.7-4.06-4.79-4.18-1.72-.1-3.33.26-4.33,1.5-.68.84-.83,1.94-1.06,2.96-.23,1.03-.92,2.11-1.9,2.68-.22.13-1,.5-1.64.83-2.04-2.89-5.11-5.77-7.45-8.48-1.41-1.63-2.56-3.45-3.64-5.27-1.44-2.41-2.03-5.16-2.13-7.87-.1-2.71.44-5.41.8-8.09,7.29,1.3,15.47.83,18-1.08,1.54-1.16.64-3.88-.21-5.56-.02-.04-.05-.09-.07-.13,3.69,6.36,15.51,11.75,32.56,14.87-.13,4.67-1.83,11.24-4.25,15.38Z"/>
</svg>